<svg xmlns="http://www.w3.org/2000/svg" width="263.169" height="224" viewBox="0 0 263.169 224">
  <g id="undraw_science_re_mnnr" transform="translate(0)">
    <path id="Tracé_42" data-name="Tracé 42" d="M252.448,106.929a4.181,4.181,0,0,0,5.994,2.274L294.7,120.835l12-9.416-46.774-8.19a4.2,4.2,0,0,0-7.485,3.7Z" transform="translate(-116.008 -73.694)" fill="#ffb6b6"/>
    <path id="Tracé_43" data-name="Tracé 43" d="M319.613,122.473s-.329-.806-4.668.947c-5.386,2.176-34.059.721-35.648-7.1a3.285,3.285,0,0,1-3.987.568l4.482-9.838c2.333-.746,3.6-1.3,3.752-.347l7.015-.413,28.411,4.783.785,9.807Z" transform="translate(-116.008 -73.694)" fill="#f2f2f2"/>
    <path id="Tracé_44" data-name="Tracé 44" d="M194.671,38.916l14.109-1.221,13.228,6.047,7.428,102.751-29.149-13.481-12.506,3.46Z" fill="#f2f2f2"/>
    <path id="Tracé_45" data-name="Tracé 45" d="M229.383,218.242h-5.352L221.486,197.6h7.9Z" fill="#ffb6b6"/>
    <path id="Tracé_46" data-name="Tracé 46" d="M346.756,297.123H329.5V296.9a6.717,6.717,0,0,1,6.716-6.717h0l3.152-2.391,5.881,2.392h1.506Z" transform="translate(-116.008 -73.694)" fill="#2f2e41"/>
    <path id="Tracé_47" data-name="Tracé 47" d="M208.644,214.869l-5.22,1.179-7.031-19.575,7.705-1.74Z" fill="#ffb6b6"/>
    <path id="Tracé_48" data-name="Tracé 48" d="M327.125,293.323l-16.833,3.8-.048-.213a6.717,6.717,0,0,1,5.073-8.031h0l2.548-3.027,6.264,1.038,1.469-.332Z" transform="translate(-116.008 -73.694)" fill="#2f2e41"/>
    <path id="Tracé_49" data-name="Tracé 49" d="M352.169,165.735c2.509,7.568,2.244,15.782-.6,24.6l-1.217,49.639c2.012,2.214,2.32,22.028-.78,28.493-4.139,8.633-.333,9.787-3.258,15.515h-8.486L333.9,258.033,333.623,237c-1.127-2.669-.2-12.06-.2-12.06l-.326-19.474L317.8,239.58c6.932,5.934,6.308,25.1,6.423,33.6l2.273,10.031-10.444.934-4.609-13.6-5.182-8.383c-2.641-14.854-3.424-25.758-1.172-30.213l15.36-57.147Z" transform="translate(-116.008 -73.694)" fill="#2f2e41"/>
    <path id="Tracé_50" data-name="Tracé 50" d="M353.257,163.209l-1.4-2.8c-1.713-10.609-3.4-20.5-1.106-29.406.144-7.77-2.257-15.07-8.926-19.056l-3.008-1.8-1.523-3.862-14.022.342-.041,5.063-5.022,8.01v.033l.314,43.584,1.387,4.5-2.092,5.232,1.11,3.338,27.644-4.42,3.215-.516a5.743,5.743,0,0,0,1.069-.466,5.873,5.873,0,0,0,2.567-2.868c.029-.07.054-.136.078-.206a5.748,5.748,0,0,0,.371-1.774,5.9,5.9,0,0,0-.615-2.93Z" transform="translate(-116.008 -73.694)" fill="#3f3d56"/>
    <path id="Tracé_51" data-name="Tracé 51" d="M353.871,166.139a5.751,5.751,0,0,1-.371,1.774l-2.645,3.074a5.742,5.742,0,0,1-1.069.466l-3.215.516,4.651-8.744L341,140.848Z" transform="translate(-116.008 -73.694)" opacity="0.2"/>
    <path id="Tracé_52" data-name="Tracé 52" d="M136.693,256.552a61.421,61.421,0,0,1-9.706-.672c-2.991-.506-4.508-1.225-4.508-2.136v-.016l5.58-42.483-2.81-8.056a2.232,2.232,0,0,1,2.131-2.967l18.48.192a2.232,2.232,0,0,1,2.094,2.938l-2.631,7.892,5.58,42.484C150.906,255.961,141.972,256.552,136.693,256.552Z" transform="translate(-116.008 -73.694)" fill="#f2f2f2"/>
    <rect id="Rectangle_105" data-name="Rectangle 105" width="9.027" height="0.508" transform="translate(10.152 176.878)" fill="#ccc"/>
    <rect id="Rectangle_106" data-name="Rectangle 106" width="9.027" height="0.508" transform="translate(10.152 173.832)" fill="#ccc"/>
    <rect id="Rectangle_107" data-name="Rectangle 107" width="9.027" height="0.508" transform="translate(10.152 170.787)" fill="#ccc"/>
    <rect id="Rectangle_108" data-name="Rectangle 108" width="9.027" height="0.508" transform="translate(10.152 167.741)" fill="#ccc"/>
    <rect id="Rectangle_109" data-name="Rectangle 109" width="9.027" height="0.508" transform="translate(10.152 164.695)" fill="#ccc"/>
    <path id="Tracé_53" data-name="Tracé 53" d="M217.911,256.552a61.421,61.421,0,0,1-9.706-.672c-2.991-.506-4.508-1.225-4.508-2.136v-.016l5.58-42.483-2.81-8.056a2.232,2.232,0,0,1,2.131-2.967l18.48.192a2.232,2.232,0,0,1,2.094,2.938l-2.631,7.892,5.58,42.484C232.124,255.961,223.19,256.552,217.911,256.552Z" transform="translate(-116.008 -73.694)" fill="#f2f2f2"/>
    <rect id="Rectangle_110" data-name="Rectangle 110" width="9.027" height="0.508" transform="translate(91.371 176.878)" fill="#ccc"/>
    <rect id="Rectangle_111" data-name="Rectangle 111" width="9.027" height="0.508" transform="translate(91.371 173.832)" fill="#ccc"/>
    <rect id="Rectangle_112" data-name="Rectangle 112" width="9.027" height="0.508" transform="translate(91.371 170.787)" fill="#ccc"/>
    <rect id="Rectangle_113" data-name="Rectangle 113" width="9.027" height="0.508" transform="translate(91.371 167.741)" fill="#ccc"/>
    <rect id="Rectangle_114" data-name="Rectangle 114" width="9.027" height="0.508" transform="translate(91.371 164.695)" fill="#ccc"/>
    <path id="Tracé_54" data-name="Tracé 54" d="M179.84,256.552a61.421,61.421,0,0,1-9.706-.672c-2.991-.506-4.508-1.225-4.508-2.136v-.016l5.58-42.483-2.81-8.056a2.232,2.232,0,0,1,2.131-2.967l18.48.192a2.232,2.232,0,0,1,2.094,2.938l-2.631,7.892,5.58,42.484C194.053,255.961,185.119,256.552,179.84,256.552Z" transform="translate(-116.008 -73.694)" fill="#f2f2f2"/>
    <rect id="Rectangle_115" data-name="Rectangle 115" width="9.027" height="0.508" transform="translate(53.3 176.878)" fill="#ccc"/>
    <rect id="Rectangle_116" data-name="Rectangle 116" width="9.027" height="0.508" transform="translate(53.3 173.832)" fill="#ccc"/>
    <rect id="Rectangle_117" data-name="Rectangle 117" width="9.027" height="0.508" transform="translate(53.3 170.787)" fill="#ccc"/>
    <rect id="Rectangle_118" data-name="Rectangle 118" width="9.027" height="0.508" transform="translate(53.3 167.741)" fill="#ccc"/>
    <rect id="Rectangle_119" data-name="Rectangle 119" width="9.027" height="0.508" transform="translate(53.3 164.695)" fill="#ccc"/>
    <path id="Tracé_55" data-name="Tracé 55" d="M239.865,259.709H222.606V230.775h17.259a3.553,3.553,0,0,0,0-7.107h-120.3a3.553,3.553,0,1,0,0,7.107h14.721v28.934H119.561a3.553,3.553,0,1,0,0,7.107h120.3a3.553,3.553,0,1,0,0-7.107Zm-98.477,0V230.775H215.5v28.934Z" transform="translate(-116.008 -73.694)" fill="#ccc"/>
    <path id="Tracé_56" data-name="Tracé 56" d="M237.071,297.171a146.677,146.677,0,0,1-23.182-1.606c-7.552-1.277-11.223-3.133-11.223-5.675l0-.08,13.255-100.926-6.636-19.023a5.842,5.842,0,0,1,.78-5.4,5.776,5.776,0,0,1,4.87-2.463l43.942.458a5.911,5.911,0,0,1,5.546,7.781l-6.212,18.636,13.257,100.935v.039c0,2.74-4.155,4.685-12.706,5.947A163.029,163.029,0,0,1,237.071,297.171Z" transform="translate(-116.008 -73.694)" fill="#fff"/>
    <path id="Tracé_57" data-name="Tracé 57" d="M237.071,297.171a146.677,146.677,0,0,1-23.182-1.606c-7.552-1.277-11.223-3.133-11.223-5.675l0-.08,13.255-100.926-6.636-19.023a5.842,5.842,0,0,1,.78-5.4,5.776,5.776,0,0,1,4.87-2.463l43.942.458a5.911,5.911,0,0,1,5.546,7.781l-6.212,18.636,13.257,100.935v.039c0,2.74-4.155,4.685-12.706,5.947A163.029,163.029,0,0,1,237.071,297.171ZM214.817,163.209a4.592,4.592,0,0,0-3.768,1.961,4.648,4.648,0,0,0-.621,4.293l6.73,19.293-.019.142L203.871,289.93c0,.99,1.33,2.941,10.22,4.444a145.418,145.418,0,0,0,22.98,1.59,159,159,0,0,0,21.52-1.36c7.375-1.088,11.623-2.806,11.674-4.716L256.982,188.759l6.3-18.9a4.7,4.7,0,0,0-4.414-6.192l-43.949-.458Z" transform="translate(-116.008 -73.694)" fill="#3f3d56"/>
    <path id="Tracé_58" data-name="Tracé 58" d="M262.12,277.542h-50.1l7.942-53.7.216-1.48L223.488,200c.2-1.364,1.772-.3,2.882-1.122,6.892-5.075,13.867-5.223,20.9-.331,1.087.756,2.59-.129,2.793,1.18l3.476,22.424.336,2.169Z" transform="translate(-116.008 -73.694)" fill="#1d286c" opacity="0.5"/>
    <path id="Tracé_59" data-name="Tracé 59" d="M255.936,285.062H218.151a6.894,6.894,0,0,1-6.82-7.9l11.04-74.653a2.191,2.191,0,0,1,3.543-1.381c6.728,5.39,14.061,5.268,21.795-.359a2.151,2.151,0,0,1,2.105-.245,2.186,2.186,0,0,1,1.331,1.695l11.6,74.9a6.894,6.894,0,0,1-6.813,7.949Z" transform="translate(-116.008 -73.694)" fill="#1d286c"/>
    <rect id="Rectangle_120" data-name="Rectangle 120" width="21.468" height="1.207" transform="translate(103.257 202.616)" fill="#fff"/>
    <rect id="Rectangle_121" data-name="Rectangle 121" width="21.468" height="1.207" transform="translate(103.257 195.372)" fill="#fff"/>
    <rect id="Rectangle_122" data-name="Rectangle 122" width="21.468" height="1.207" transform="translate(103.257 188.13)" fill="#fff"/>
    <rect id="Rectangle_123" data-name="Rectangle 123" width="21.468" height="1.207" transform="translate(103.257 180.886)" fill="#fff"/>
    <rect id="Rectangle_124" data-name="Rectangle 124" width="21.468" height="1.207" transform="translate(103.257 173.643)" fill="#fff"/>
    <path id="Tracé_60" data-name="Tracé 60" d="M254.889,228.336a16.267,16.267,0,0,1-12.766,4.672,19.48,19.48,0,0,1-7.442-2.493c-2.42-1.3-4.762-2.849-7.442-3.573-2.348-.634-5.131-.718-7.147.851a.98.98,0,0,1-1.159.03l.229-1.569a9.728,9.728,0,0,1,7.647-1.274c5.384,1.087,9.47,5.541,14.987,6.181a14.457,14.457,0,0,0,12.73-5.118l.006-.006Z" transform="translate(-116.008 -73.694)" fill="#fff"/>
    <path id="Tracé_61" data-name="Tracé 61" d="M379.177,297.2a.49.49,0,0,1-.491.491H116.531a.491.491,0,0,1,0-.982H378.685a.49.49,0,0,1,.491.491Z" transform="translate(-116.008 -73.694)" fill="#ccc"/>
    <path id="Tracé_62" data-name="Tracé 62" d="M208.7,37.678l14.109-1.221L236.038,42.5l7.428,102.751-29.149-13.481-12.506,3.46Z" fill="#f2f2f2"/>
    <circle id="Ellipse_5" data-name="Ellipse 5" cx="2.476" cy="2.476" r="2.476" transform="translate(136.588 32.599)" fill="#1d286c"/>
    <circle id="Ellipse_6" data-name="Ellipse 6" cx="2.476" cy="2.476" r="2.476" transform="translate(132.462 62.723)" fill="#1d286c"/>
    <circle id="Ellipse_7" data-name="Ellipse 7" cx="2.476" cy="2.476" r="2.476" transform="translate(119.257 80.467)" fill="#1d286c"/>
    <path id="Tracé_63" data-name="Tracé 63" d="M299.55,178.3V151.717a2.031,2.031,0,0,1,2.029-2.029h20.073a2.031,2.031,0,0,1,2.029,2.029V178.3a2.031,2.031,0,0,1-2.029,2.029H301.579a2.031,2.031,0,0,1-2.029-2.029Z" transform="translate(-116.008 -73.694)" fill="#e6e6e6"/>
    <path id="Tracé_64" data-name="Tracé 64" d="M301.09,170.268V153.181a1.9,1.9,0,0,1,1.9-1.9h17.251a1.9,1.9,0,0,1,1.9,1.9v23.652a1.9,1.9,0,0,1-1.9,1.9H309.554A8.474,8.474,0,0,1,301.09,170.268Z" transform="translate(-116.008 -73.694)" fill="#fff"/>
    <path id="Tracé_65" data-name="Tracé 65" d="M303.883,157.948a1.859,1.859,0,0,1,1.857-1.857h11.967a1.857,1.857,0,1,1,0,3.714H305.739A1.859,1.859,0,0,1,303.883,157.948Z" transform="translate(-116.008 -73.694)" fill="#e6e6e6"/>
    <path id="Tracé_66" data-name="Tracé 66" d="M303.883,163.726a1.859,1.859,0,0,1,1.857-1.857h11.967a1.857,1.857,0,1,1,0,3.714H305.739a1.859,1.859,0,0,1-1.857-1.857Z" transform="translate(-116.008 -73.694)" fill="#e6e6e6"/>
    <path id="Tracé_67" data-name="Tracé 67" d="M303.883,169.5a1.859,1.859,0,0,1,1.857-1.857h11.967a1.857,1.857,0,1,1,0,3.714H305.739A1.859,1.859,0,0,1,303.883,169.5Z" transform="translate(-116.008 -73.694)" fill="#e6e6e6"/>
    <path id="Tracé_68" data-name="Tracé 68" d="M315.9,182.881a4.181,4.181,0,0,0,1.927-6.115l14.554-13.222,5.106-19.75-9.061-.754-2.77,15.5-13.878,17.082a4.2,4.2,0,0,0,4.123,7.26Z" transform="translate(-116.008 -73.694)" fill="#ffb6b6"/>
    <path id="Tracé_69" data-name="Tracé 69" d="M338.885,125.958s2.209.033,1.214,4.606c-.8,3.661-3.818,24.263-6.229,28.872a3.285,3.285,0,0,1,.8,3.948l-10.079-3.91c-.879-2.287.595-3,1.534-3.2l-.184-7.172,1.445-18.282,9.908-4.909Z" transform="translate(-116.008 -73.694)" fill="#f2f2f2"/>
    <path id="Tracé_70" data-name="Tracé 70" d="M341.854,92.113a13.059,13.059,0,1,1-25.88-3.522l.025-.185a13.058,13.058,0,1,1,25.852,3.707Z" transform="translate(-116.008 -73.694)" fill="#ffb8b8"/>
    <path id="Tracé_71" data-name="Tracé 71" d="M338.53,98.84a7.9,7.9,0,0,0,1.171-4.331c-.188-1.507-1.666-2.947-3.117-2.5-.868.268-1.523,1.124-2.43,1.168-1.248.06-1.963-1.368-2.352-2.555l-1.582-4.836a13.085,13.085,0,0,1-10.867,2.456,6.2,6.2,0,0,1-3.814-2.226,3.105,3.105,0,0,1,.325-4.088c.579-.458,1.351-.632,1.9-1.121a2.134,2.134,0,0,0-1.7-3.713l3.983-.5-1.187-2.146a3.919,3.919,0,0,0,3.117.572c1.072-.193,2.081-.634,3.129-.928a12.043,12.043,0,0,1,13.4,5.626,5.1,5.1,0,0,1,5.559,1.605,8.11,8.11,0,0,1,1.4,4.882,21.18,21.18,0,0,1-2.159,9.811,8.037,8.037,0,0,1-1.814,2.573,3.63,3.63,0,0,1-2.914.953" transform="translate(-116.008 -73.694)" fill="#2f2e41"/>
  </g>
</svg>
