<svg xmlns="http://www.w3.org/2000/svg" width="336.105" height="237.771" viewBox="0 0 336.105 237.771">
  <g id="undraw_add_user_re_5oib" transform="translate(0)">
    <path id="Tracé_310" data-name="Tracé 310" d="M867.6,296.448c-4.636,16.084-18.174,27.343-32.3,36.908q-2.958,2-5.917,3.915c-.013.006-.027.018-.041.024-.095.061-.19.122-.278.184l-1.218.785.222.1s.218.116-.021.019c-.071-.03-.145-.056-.216-.086-8.2-3.309-16.553-6.861-22.84-13.059-6.522-6.436-10.333-16.532-6.8-24.987a16.141,16.141,0,0,1,1.748-3.138c.286-.41.595-.8.916-1.187a17.3,17.3,0,0,1,29.721,5.258c1.038-9.66-6.928-17.751-14.593-23.721S799.6,264.995,798.12,255.389a18.723,18.723,0,0,1,4.416-14.682c.1-.126.21-.253.318-.375a25.254,25.254,0,0,1,16.232-8.708c11.759-1.222,23.181,5,31.723,13.178C864.558,257.955,872.869,278.16,867.6,296.448Z" transform="translate(-533.093 -218.837)" fill="#f2f2f2"/>
    <path id="Tracé_311" data-name="Tracé 311" d="M848.768,284.727a42.929,42.929,0,0,1,5.143,11.344,37.273,37.273,0,0,1,1.289,11.01,47.762,47.762,0,0,1-6.255,21.736,68.738,68.738,0,0,1-10.37,13.857q-2.958,2-5.917,3.915c-.013.006-.027.018-.041.024-.095.061-.19.122-.279.183l-1.218.785s.44.215.2.118c-.071-.03-.145-.056-.216-.086a37.662,37.662,0,0,0-27.893-41.184c.286-.41.595-.8.916-1.187a39.741,39.741,0,0,1,6.559,2.482,38.933,38.933,0,0,1,17.6,16.972,39.8,39.8,0,0,1,4.334,21.843c.337-.305.675-.618,1-.927a69.8,69.8,0,0,0,15.518-20.182A44.434,44.434,0,0,0,853.8,304.4c-.306-7.941-3.47-15.3-8.051-21.7a93,93,0,0,0-17.63-18.169A105.682,105.682,0,0,0,806.19,251a.76.76,0,0,1-.382-.975.646.646,0,0,1,.317-.375.563.563,0,0,1,.489.021c.967.445,1.928.9,2.88,1.367A106.878,106.878,0,0,1,831.576,265.6,86.054,86.054,0,0,1,848.768,284.727Z" transform="translate(-536.365 -228.154)" fill="#fff"/>
    <circle id="Ellipse_48" data-name="Ellipse 48" cx="17.196" cy="17.196" r="17.196" transform="translate(241.644 135.313)" fill="#2f2e41"/>
    <ellipse id="Ellipse_49" data-name="Ellipse 49" cx="7.116" cy="5.337" rx="7.116" ry="5.337" transform="translate(232.841 140.721) rotate(-45)" fill="#2f2e41"/>
    <ellipse id="Ellipse_50" data-name="Ellipse 50" cx="5.337" cy="7.116" rx="5.337" ry="7.116" transform="translate(261.581 137.096) rotate(-66.869)" fill="#2f2e41"/>
    <path id="Tracé_312" data-name="Tracé 312" d="M831.572,632.826a64.081,64.081,0,0,1-9.334,5.382l-.481-.851-4.609-8.09-.4-.71-2.358-4.137,0,0-7.443-13.078-3.826-6.714,11.362-7.968L818.893,606l2.4,5.076,9.864,20.861Z" transform="translate(-536.313 -406.481)" fill="#a0616a"/>
    <path id="Tracé_313" data-name="Tracé 313" d="M816.519,588.353l-1.424-2.232-6.3-9.884a7.952,7.952,0,0,0-14.536,6.451l3.894,13.875a2.856,2.856,0,0,0,3.884,1.852l.039-.015,11.916-5.324,1.283-.574a2.869,2.869,0,0,0,1.245-4.152Z" transform="translate(-531.411 -393.561)" fill="#1d286c"/>
    <path id="Tracé_314" data-name="Tracé 314" d="M742.584,603.214l-3.316,7.487-.72,1.629L726.274,640.06l-.394.89a63.741,63.741,0,0,1-9.568-4.978l.331-.933,10.02-28.271,2.46-6.943,5.387,1.356Z" transform="translate(-491.712 -408.11)" fill="#a0616a"/>
    <circle id="Ellipse_51" data-name="Ellipse 51" cx="14.594" cy="14.594" r="14.594" transform="translate(239.579 162.422) rotate(-61.337)" fill="#a0616a"/>
    <path id="Tracé_315" data-name="Tracé 315" d="M792.313,589.573a32.464,32.464,0,0,0-1.143-5.678,31.648,31.648,0,0,0-9.145-14.507,8.648,8.648,0,0,0-5.786-2.212h-20.56a8.646,8.646,0,0,0-7.745,12.533l2.348,4.7,4.76,9.519,1.142,2.28,5.09,10.185.4.807,25.84,7.108.112-.248c.1-.219.194-.433.287-.647.141-.326.282-.642.413-.963a50.477,50.477,0,0,0,4.132-16.52A36.782,36.782,0,0,0,792.313,589.573Z" transform="translate(-507.488 -391.333)" fill="#1d286c"/>
    <path id="Tracé_316" data-name="Tracé 316" d="M752.452,571.86a7.94,7.94,0,0,0-10.545,3.792l-1.833,2.766-6.126,9.247a2.865,2.865,0,0,0,1.172,4.176l.36.17,11.887,5.562.846.394a2.75,2.75,0,0,0,1.016.258,2.8,2.8,0,0,0,1.371-.238,2.858,2.858,0,0,0,1.57-1.789l4.113-13.763A7.96,7.96,0,0,0,752.452,571.86Z" transform="translate(-500.53 -393.354)" fill="#1d286c"/>
    <path id="Tracé_317" data-name="Tracé 317" d="M789.662,651.431a2.657,2.657,0,0,0-.413-.841,11.124,11.124,0,0,0-2.358-2.334l0,0c-3.126-2.368-9.349-5.134-21.352-5.207h-.019a2.867,2.867,0,0,0-2.611,1.677l-.3.651-1.911,4.2a2.191,2.191,0,0,1-.744.9,28.638,28.638,0,0,0-10.059,14.094c-.1.3-.2.608-.292.924a64.222,64.222,0,0,0,37.129-.335l.267-1.1,2.655-10.949.044-.18a2.873,2.873,0,0,0-.034-1.493Z" transform="translate(-508.818 -430.318)" fill="#2f2e41"/>
    <path id="Tracé_318" data-name="Tracé 318" d="M756.322,500.485a19.849,19.849,0,0,0,11.344,3.506,12.164,12.164,0,0,1-4.821,1.983,40.025,40.025,0,0,0,16.349.092,10.582,10.582,0,0,0,3.422-1.176,4.331,4.331,0,0,0,2.113-2.825c.359-2.049-1.238-3.911-2.9-5.165a21.372,21.372,0,0,0-17.96-3.589,9.835,9.835,0,0,0-5.319,3.006,4.845,4.845,0,0,0-.448,5.754Z" transform="translate(-512.271 -353.05)" fill="#2f2e41"/>
    <rect id="Rectangle_154" data-name="Rectangle 154" width="263.656" height="1.057" transform="translate(0.528 14.818)" fill="#3f3d56"/>
    <circle id="Ellipse_52" data-name="Ellipse 52" cx="3.17" cy="3.17" r="3.17" transform="translate(6.34 4.758)" fill="#3f3d56"/>
    <circle id="Ellipse_53" data-name="Ellipse 53" cx="3.17" cy="3.17" r="3.17" transform="translate(15.454 4.758)" fill="#3f3d56"/>
    <circle id="Ellipse_54" data-name="Ellipse 54" cx="3.17" cy="3.17" r="3.17" transform="translate(24.569 4.758)" fill="#3f3d56"/>
    <path id="Tracé_319" data-name="Tracé 319" d="M518.542,354.938H368.9a3.391,3.391,0,0,1,0-6.783H518.542a3.391,3.391,0,1,1,0,6.783Z" transform="translate(-311.458 -278.794)" fill="#ccc"/>
    <path id="Tracé_320" data-name="Tracé 320" d="M518.542,429.926H368.9a3.391,3.391,0,0,1,0-6.783H518.542a3.391,3.391,0,1,1,0,6.783Z" transform="translate(-311.458 -317.325)" fill="#e6e6e6"/>
    <path id="Tracé_321" data-name="Tracé 321" d="M518.542,458.7H368.9a3.391,3.391,0,1,1,0-6.783H518.542a3.391,3.391,0,1,1,0,6.783Z" transform="translate(-311.458 -332.11)" fill="#e6e6e6"/>
    <path id="Tracé_322" data-name="Tracé 322" d="M519.929,325.292H419.038a3.391,3.391,0,1,1,0-6.783H519.929a3.391,3.391,0,0,1,0,6.783Z" transform="translate(-337.221 -263.561)" fill="#ccc"/>
    <path id="Tracé_323" data-name="Tracé 323" d="M421.857,401.151H369.292a3.391,3.391,0,1,1,0-6.783h52.565a3.391,3.391,0,1,1,0,6.783Z" transform="translate(-311.66 -302.54)" fill="#e6e6e6"/>
    <path id="Tracé_324" data-name="Tracé 324" d="M621.534,401.151H568.969a3.391,3.391,0,1,1,0-6.783h52.565a3.391,3.391,0,1,1,0,6.783Z" transform="translate(-414.26 -302.54)" fill="#e6e6e6"/>
    <path id="Tracé_325" data-name="Tracé 325" d="M515.345,205.485H258.027a3.7,3.7,0,0,0-3.695,3.7V383.549a3.7,3.7,0,0,0,3.695,3.695h192.42c-.049-.35-.088-.7-.126-1.055H258.027a2.642,2.642,0,0,1-2.64-2.64V209.185a2.646,2.646,0,0,1,2.64-2.645H515.345a2.648,2.648,0,0,1,2.645,2.645V316.049c.35.024.7.053,1.055.087V209.185a3.7,3.7,0,0,0-3.7-3.7Z" transform="translate(-254.332 -205.485)" fill="#3f3d56"/>
    <path id="Tracé_326" data-name="Tracé 326" d="M656.133,502.871c-.049-.35-.088-.7-.126-1.055-.01-.053-.015-.1-.019-.156q-.211-1.918-.306-3.875-.4,1.685-.724,3.384c.015.165.029.326.049.491,0,.053.01.1.019.156.039.35.078.7.127,1.055.136,1.084.3,2.154.5,3.218,0-.044.01-.083.015-.126.136-1.026.292-2.047.476-3.068a.044.044,0,0,1,0-.024Zm68.6-72.084c-.35-.034-.705-.063-1.055-.087-.053,0-.1,0-.156-.01-1.556-.117-3.131-.175-4.716-.175a64.194,64.194,0,0,0-63.848,70.655c.014.165.029.326.048.491.005.053.01.1.019.156.039.35.078.7.126,1.055.136,1.084.3,2.154.5,3.218a64.453,64.453,0,0,0,38.538,47.863c1.011.418,2.032.817,3.068,1.181.681.248,1.361.476,2.052.7.5.16,1,.311,1.5.457.71.209,1.429.409,2.154.593a63.86,63.86,0,0,0,52.321-9.422h.005a64.154,64.154,0,0,0-30.551-116.67Zm30.128,115.781a62.893,62.893,0,0,1-9.4,5.421,62.231,62.231,0,0,1-7.263,2.859,63.314,63.314,0,0,1-34.557,1.2q-1.283-.314-2.547-.685-1.247-.365-2.47-.773c-.666-.228-1.332-.462-1.993-.71-.69-.263-1.371-.535-2.051-.817A63.364,63.364,0,0,1,656.138,502.9a.045.045,0,0,1,0-.024c-.049-.35-.088-.7-.127-1.055-.01-.053-.014-.1-.019-.156q-.211-1.918-.306-3.875-.08-1.539-.078-3.1a63.271,63.271,0,0,1,63.2-63.2c1.585,0,3.16.058,4.716.175l.156.015c.35.024.705.053,1.055.088a63.182,63.182,0,0,1,30.135,114.8Zm-58.228,7.312c-.69-.263-1.371-.535-2.051-.817A63.365,63.365,0,0,1,656.138,502.9c-.185,1.021-.34,2.042-.476,3.068,0,.044-.01.083-.014.126a64.453,64.453,0,0,0,38.538,47.863c1.011.418,2.032.817,3.068,1.181C697.04,554.721,696.831,554.3,696.631,553.88Zm26.89-123.19c-1.556-.117-3.131-.175-4.716-.175a64.194,64.194,0,0,0-63.848,70.655c.014.165.029.326.048.491.005.053.01.1.019.156h.982c-.01-.053-.015-.1-.019-.156q-.211-1.918-.306-3.875-.08-1.539-.078-3.1a63.271,63.271,0,0,1,63.2-63.2c1.585,0,3.16.058,4.716.175l.155.015V430.7c-.053,0-.1,0-.155-.01Z" transform="translate(-460.019 -321.113)" fill="#3f3d56"/>
    <path id="Tracé_327" data-name="Tracé 327" d="M878.3,464.3c19.711.337,19.708,29.657,0,29.99C858.592,493.956,858.6,464.635,878.3,464.3Z" transform="translate(-567.353 -338.474)" fill="#1d286c"/>
    <path id="Tracé_328" data-name="Tracé 328" d="M885.3,494.681a1.055,1.055,0,0,1-1.054-1.054v-5.588a.47.47,0,0,0-.47-.47h-5.588a1.054,1.054,0,1,1,0-2.108h5.587a.47.47,0,0,0,.47-.469V479.4a1.054,1.054,0,1,1,2.107,0v5.588a.47.47,0,0,0,.47.469h5.588a1.054,1.054,0,0,1,0,2.108H886.82a.47.47,0,0,0-.469.47v5.587A1.055,1.055,0,0,1,885.3,494.681Z" transform="translate(-574.347 -345.692)" fill="#fff"/>
  </g>
</svg>
