<svg id="undraw_online_organizer_re_156n" xmlns="http://www.w3.org/2000/svg" width="305.138" height="195.225" viewBox="0 0 305.138 195.225">
  <path id="Tracé_244" data-name="Tracé 244" d="M495.418,255.544H295.232a.777.777,0,1,1,0-1.555H495.418a.777.777,0,1,1,0,1.555Z" transform="translate(-273.343 -240.708)" fill="#cacaca"/>
  <ellipse id="Ellipse_32" data-name="Ellipse 32" cx="4.555" cy="4.657" rx="4.555" ry="4.657" transform="translate(30.64 0)" fill="#3f3d56"/>
  <ellipse id="Ellipse_33" data-name="Ellipse 33" cx="4.555" cy="4.657" rx="4.555" ry="4.657" transform="translate(46.375 0)" fill="#3f3d56"/>
  <ellipse id="Ellipse_34" data-name="Ellipse 34" cx="4.555" cy="4.657" rx="4.555" ry="4.657" transform="translate(62.111 0)" fill="#3f3d56"/>
  <path id="Tracé_245" data-name="Tracé 245" d="M723.61,225.8H712.432a.846.846,0,1,0,0,1.693H723.61a.846.846,0,1,0,0-1.693Z" transform="translate(-511.008 -224.648)" fill="#3f3d56"/>
  <path id="Tracé_246" data-name="Tracé 246" d="M723.61,233.186H712.432a.846.846,0,1,0,0,1.693H723.61a.846.846,0,1,0,0-1.693Z" transform="translate(-511.008 -228.855)" fill="#3f3d56"/>
  <path id="Tracé_247" data-name="Tracé 247" d="M723.61,240.561H712.432a.846.846,0,1,0,0,1.693H723.61a.846.846,0,1,0,0-1.693Z" transform="translate(-511.008 -233.057)" fill="#3f3d56"/>
  <path id="Tracé_248" data-name="Tracé 248" d="M424.217,444.332l.274-98.92a7.56,7.56,0,0,1,7.573-7.531l74.707.207a7.56,7.56,0,0,1,7.531,7.573l-.274,98.92a7.56,7.56,0,0,1-7.573,7.531l-74.707-.207A7.56,7.56,0,0,1,424.217,444.332Z" transform="translate(-347.276 -288.506)" fill="#e6e6e6"/>
  <path id="Tracé_249" data-name="Tracé 249" d="M437.729,422.337l.176-63.595A7.08,7.08,0,0,1,445,351.69l64.2.178a7.081,7.081,0,0,1,7.053,7.092l-.244,88.026a7.081,7.081,0,0,1-7.092,7.053l-39.773-.11A31.539,31.539,0,0,1,437.729,422.337Z" transform="translate(-354.975 -296.374)" fill="#fff"/>
  <path id="Tracé_250" data-name="Tracé 250" d="M516.813,459.123H466.751a3,3,0,1,1,0-6.008h50.062a3,3,0,1,1,0,6.008Z" transform="translate(-369.799 -354.163)" fill="#1d286c"/>
  <path id="Tracé_251" data-name="Tracé 251" d="M477.765,420.835H466.751a3,3,0,0,1,0-6.008h11.014a3,3,0,0,1,0,6.008Z" transform="translate(-369.799 -332.348)" fill="#1d286c"/>
  <path id="Tracé_252" data-name="Tracé 252" d="M516.813,520.509H466.751a3,3,0,0,1,0-6.008h50.062a3,3,0,1,1,0,6.008Z" transform="translate(-369.799 -389.138)" fill="#1d286c"/>
  <path id="Tracé_253" data-name="Tracé 253" d="M516.813,489.816H466.751a3,3,0,0,1,0-6.008h50.062a3,3,0,1,1,0,6.008Z" transform="translate(-369.799 -371.651)" fill="#1d286c"/>
  <circle id="Ellipse_35" data-name="Ellipse 35" cx="11.952" cy="11.952" r="11.952" transform="translate(0 171.321)" fill="#1d286c"/>
  <path id="Tracé_254" data-name="Tracé 254" d="M263.3,647.083a1.329,1.329,0,0,1-1.063-.532l-3.261-4.348a1.329,1.329,0,0,1,2.127-1.6l2.133,2.844,5.479-8.218a1.33,1.33,0,1,1,2.212,1.475l-6.522,9.782a1.33,1.33,0,0,1-1.069.592Z" transform="translate(-252.974 -457.59)" fill="#fff"/>
  <rect id="Rectangle_145" data-name="Rectangle 145" width="0.86" height="2.581" transform="translate(11.198 157.084)" fill="#2f2e41"/>
  <path id="Tracé_255" data-name="Tracé 255" d="M272.271,518.026h-.86V513.1h.86Zm0-9.858h-.86V503.24h.86Zm0-9.858h-.86v-4.929h.86Zm0-9.858h-.86v-4.929h.86Zm0-9.858h-.86v-4.929h.86Z" transform="translate(-260.213 -365.872)" fill="#2f2e41"/>
  <path id="Tracé_256" data-name="Tracé 256" d="M26.888,235.1h-.86v-3.012H29.04v.86H26.888Z" transform="translate(-14.83 -132.237)" fill="#2f2e41"/>
  <path id="Tracé_257" data-name="Tracé 257" d="M325.75,456.071h-5.077v-.861h5.077Zm-10.154,0H310.52v-.861H315.6Zm-10.154,0h-5.077v-.861h5.077Zm-10.154,0h-5.077v-.861h5.077Z" transform="translate(-270.925 -355.356)" fill="#2f2e41"/>
  <rect id="Rectangle_146" data-name="Rectangle 146" width="2.581" height="0.86" transform="translate(59.902 99.854)" fill="#2f2e41"/>
  <rect id="Rectangle_147" data-name="Rectangle 147" width="0.86" height="2.581" transform="translate(287.974 131.12)" fill="#2f2e41"/>
  <path id="Tracé_258" data-name="Tracé 258" d="M915.585,492.3h-.86v-5.651h.86Zm0-11.3h-.86v-5.65h.86Z" transform="translate(-626.75 -366.828)" fill="#2f2e41"/>
  <path id="Tracé_259" data-name="Tracé 259" d="M667.352,235.1h-.86v-2.151H664.34v-.86h3.012Z" transform="translate(-378.517 -132.237)" fill="#2f2e41"/>
  <path id="Tracé_260" data-name="Tracé 260" d="M776.878,456.071h-5.349v-.861h5.348Zm-10.7,0h-5.349v-.861h5.349Zm-10.7,0h-5.349v-.861h5.349Zm-10.7,0h-5.349v-.861h5.349Zm-10.7,0h-5.349v-.861h5.349Zm-10.7,0h-5.349v-.861h5.348Zm-10.7,0h-5.348v-.861H712.7Zm-10.7,0h-5.349v-.861H702Zm-10.7,0h-5.349v-.861H691.3Z" transform="translate(-496.404 -355.356)" fill="#2f2e41"/>
  <rect id="Rectangle_148" data-name="Rectangle 148" width="2.581" height="0.86" transform="translate(181.619 99.854)" fill="#2f2e41"/>
  <circle id="Ellipse_36" data-name="Ellipse 36" cx="11.952" cy="11.952" r="11.952" transform="translate(276.723 141.204)" fill="#1d286c"/>
  <path id="Tracé_261" data-name="Tracé 261" d="M911.831,572.228l2.351-2.351a1.663,1.663,0,1,0-2.351-2.351l-2.351,2.351-2.351-2.351a1.663,1.663,0,0,0-2.351,2.351l2.351,2.351-2.351,2.351a1.663,1.663,0,1,0,2.351,2.351l2.351-2.351,2.351,2.351a1.663,1.663,0,0,0,2.351-2.351Z" transform="translate(-620.805 -419.072)" fill="#fff"/>
  <path id="Tracé_262" data-name="Tracé 262" d="M593.025,189.762l2.581,15.322,24.523-13.171Z" transform="translate(-337.884 -108.119)" fill="#2f2e41"/>
  <path id="Tracé_263" data-name="Tracé 263" d="M577.245,384.553l-5.137-.21-1.636-19.915,7.582.309Z" transform="translate(-325.034 -207.638)" fill="#ffb6b6"/>
  <path id="Tracé_264" data-name="Tracé 264" d="M813.475,444.173c9.319-2.841,11.231-14.988,16.349-17.64-.013-6.415.245-26.31-6.159-25.931-3.566.211-23.437,36.583-24.289,42.609-1.58,11.18,6.857,39.715,5.878,41.675l9.8.62.057-.771c.155-2.092,1.717-8.4-.064-9.507l-.675-.419h0c.006-2.175.481-5.88-1.481-6.82h0a.2.2,0,0,1-.083-.281Z" transform="translate(-560.915 -324.24)" fill="#2f2e41"/>
  <path id="Tracé_265" data-name="Tracé 265" d="M815.365,629.411l-3.435.2-.8-3.207-1.379,3.336-9.112.537a2.052,2.052,0,0,1-1.384-3.665l6.98-5.454-.193-3.279,7.68.006Z" transform="translate(-560.508 -448.04)" fill="#2f2e41"/>
  <path id="Tracé_266" data-name="Tracé 266" d="M677.229,301.6l5.125.415,4.04-19.569-7.563-.613Z" transform="translate(-385.861 -160.58)" fill="#ffb6b6"/>
  <path id="Tracé_267" data-name="Tracé 267" d="M881.5,411.737c-4.6,8.077-12.819,10.006-21.345,11.419-3.707-5.236-9.358-12.535-3.919-15.938,3.029-1.895,29.284-17.224,33.337-12.685,10.582,11.852,3.033,49.993,3.683,49.15l-8.382-.122-.494-.6a5.636,5.636,0,0,1-.86-5.775l.307-.733h0a5.636,5.636,0,0,1-.345-6.011l.106-.192Z" transform="translate(-592.143 -320.308)" fill="#2f2e41"/>
  <path id="Tracé_268" data-name="Tracé 268" d="M918.283,534.31l7.624.926-.59,3.231,6.267,6.261a2.052,2.052,0,0,1-1.818,3.47l-8.979-1.639-.964-3.479-1.187,3.086-3.385-.618Z" transform="translate(-627.049 -400.424)" fill="#2f2e41"/>
  <path id="Tracé_269" data-name="Tracé 269" d="M847.724,285.881h-3.518a4.444,4.444,0,0,0-3.654,1.914l-2.547,3.679-6.346,1.154a11.135,11.135,0,0,0-4.552,13.444c4.49,11.745,6.658,33.758,2.293,43.484,0,0,26.478,2.4,33.128-5.593s1.291-46.9,1.291-46.9l-9.9-5.593-2.547-3.679a4.444,4.444,0,0,0-3.654-1.914Z" transform="translate(-576.411 -258.879)" fill="#1d286c"/>
  <path id="Tracé_270" data-name="Tracé 270" d="M907.326,409.318a2.958,2.958,0,0,0-.517-4.506l5.8-19.06-6.453-3.872-3.581,23.935a2.974,2.974,0,0,0,4.755,3.5Z" transform="translate(-619.604 -313.576)" fill="#ffb6b6"/>
  <path id="Tracé_271" data-name="Tracé 271" d="M904.513,346.119l-7.744-3.012.331-3.867L887.9,319.1a7.457,7.457,0,0,1,4.975-10.333h0a7.465,7.465,0,0,1,9.042,5.426l6.047,24.2C908.661,342.146,907.871,344.951,904.513,346.119Z" transform="translate(-611.08 -271.791)" fill="#1d286c"/>
  <path id="Tracé_272" data-name="Tracé 272" d="M867.7,241.225a13.144,13.144,0,1,0-26.287,0v8.239a1.766,1.766,0,0,0,1.764,1.764h.323a12.606,12.606,0,0,0,.676-3.309,11.813,11.813,0,0,1,1.532,3.309h20.225a1.77,1.77,0,0,0,1.768-1.764C868.759,247.3,869.237,244.809,867.7,241.225Z" transform="translate(-584.977 -225.946)" fill="#2f2e41"/>
  <circle id="Ellipse_37" data-name="Ellipse 37" cx="9.636" cy="9.636" r="9.636" transform="translate(259.41 5.928)" fill="#ffb8b8"/>
  <path id="Tracé_273" data-name="Tracé 273" d="M847.4,243.938a.98.98,0,0,1-.23-.782l1.141-7.949a.982.982,0,0,1,.555-.753,19.894,19.894,0,0,1,17.561-.01.989.989,0,0,1,.561.8l1.192,6.238a.983.983,0,0,1-.25.753c-.185.2-.445,4.686-.721,4.686.233-2.672-.33-3.95-2.368-2.644a.985.985,0,0,1-.889-.566l-.834-1.787A.588.588,0,0,0,862,242.1l-.165,1.318a.982.982,0,0,1-.973.859c-3.405,1.69-7.871,1.235-12.722,0a.981.981,0,0,1-.741-.338Z" transform="translate(-588.254 -228.411)" fill="#2f2e41"/>
  <path id="Tracé_274" data-name="Tracé 274" d="M864.971,355.937H849.178a2.042,2.042,0,0,1-2.04-2.04V336.921a2.042,2.042,0,0,1,2.04-2.04h15.794a2.042,2.042,0,0,1,2.04,2.04V353.9A2.042,2.042,0,0,1,864.971,355.937Z" transform="translate(-588.241 -286.797)" fill="#3f3d56"/>
  <circle id="Ellipse_38" data-name="Ellipse 38" cx="1.183" cy="1.183" r="1.183" transform="translate(260.198 49.385)" fill="#e6e6e6"/>
  <circle id="Ellipse_39" data-name="Ellipse 39" cx="0.71" cy="0.71" r="0.71" transform="translate(260.671 49.859)" fill="#3f3d56"/>
  <path id="Tracé_275" data-name="Tracé 275" d="M866.218,349.23a3.588,3.588,0,0,1-5.5-.2l-14.159,3.921-2.151-4.733,17.121-4.409a3.608,3.608,0,0,1,4.688,5.419Z" transform="translate(-586.687 -291.532)" fill="#ffb8b8"/>
  <path id="Tracé_276" data-name="Tracé 276" d="M829.973,330.778,826,332.046c-4.321,4.565-5.85,1.253-10.942.91-.958-.064-1.708-.851-2.229-2.337a9.145,9.145,0,0,1,.2-6.408l7.073-17.727,2.96-2.426,4.134,4.954-3.174,13.619,5.21,2.656Z" transform="translate(-568.418 -269.235)" fill="#1d286c"/>
</svg>
