<svg xmlns="http://www.w3.org/2000/svg" width="366.111" height="227.25" viewBox="0 0 366.111 227.25">
  <g id="undraw_add_information_j2wg" transform="translate(0)">
    <path id="Tracé_207" data-name="Tracé 207" d="M346.714,655.214l.407-9.153a29.562,29.562,0,0,1,13.789-3.491c-6.623,5.414-5.795,15.852-10.285,23.133a17.782,17.782,0,0,1-13.04,8.217l-5.542,3.393a29.8,29.8,0,0,1,6.28-24.145,28.782,28.782,0,0,1,5.29-4.915C344.941,651.752,346.714,655.214,346.714,655.214Z" transform="translate(-258.038 -450.375)" fill="#f2f2f2"/>
    <path id="Tracé_208" data-name="Tracé 208" d="M573.33,206.863H315.338a.414.414,0,1,1,0-.829H573.33a.414.414,0,1,1,0,.829Z" transform="translate(-248.181 -191.949)" fill="#cacaca"/>
    <ellipse id="Ellipse_24" data-name="Ellipse 24" cx="4.458" cy="4.557" rx="4.458" ry="4.557" transform="translate(71.821 0)" fill="#3f3d56"/>
    <ellipse id="Ellipse_25" data-name="Ellipse 25" cx="4.458" cy="4.557" rx="4.458" ry="4.557" transform="translate(87.22 0)" fill="#3f3d56"/>
    <ellipse id="Ellipse_26" data-name="Ellipse 26" cx="4.458" cy="4.557" rx="4.458" ry="4.557" transform="translate(102.619 0)" fill="#3f3d56"/>
    <path id="Tracé_209" data-name="Tracé 209" d="M908.572,174.281H897.633a.828.828,0,1,0,0,1.657h10.939a.828.828,0,1,0,0-1.657Z" transform="translate(-592.65 -173.151)" fill="#3f3d56"/>
    <path id="Tracé_210" data-name="Tracé 210" d="M908.572,181.9H897.633a.828.828,0,1,0,0,1.657h10.939a.828.828,0,1,0,0-1.657Z" transform="translate(-592.65 -177.662)" fill="#3f3d56"/>
    <path id="Tracé_211" data-name="Tracé 211" d="M908.572,189.511H897.633a.828.828,0,1,0,0,1.657h10.939a.828.828,0,1,0,0-1.657Z" transform="translate(-592.65 -182.167)" fill="#3f3d56"/>
    <path id="Tracé_212" data-name="Tracé 212" d="M546.346,287.654H369.267a3.293,3.293,0,0,0-3.293,3.288v83.588a3.3,3.3,0,0,0,3.293,3.293H546.346a3.3,3.3,0,0,0,3.289-3.293V290.943A3.292,3.292,0,0,0,546.346,287.654Z" transform="translate(-278.402 -240.267)" fill="#3f3d56"/>
    <path id="Tracé_213" data-name="Tracé 213" d="M688.642,386.354a3.292,3.292,0,0,0-3.289,3.289v23.611a3.3,3.3,0,0,0,3.289,3.293H738.7V386.354Z" transform="translate(-467.473 -298.697)" fill="#1d286c"/>
    <path id="Tracé_214" data-name="Tracé 214" d="M822.882,416.542H688.643a3.3,3.3,0,0,1-3.291-3.291v-23.61a3.3,3.3,0,0,1,3.291-3.291H822.881a3.3,3.3,0,0,1,3.291,3.291v23.61A3.3,3.3,0,0,1,822.882,416.542Z" transform="translate(-467.472 -298.695)" fill="#1d286c" opacity="0.5"/>
    <circle id="Ellipse_27" data-name="Ellipse 27" cx="5.341" cy="5.341" r="5.341" transform="translate(233.984 98.92)" fill="#fff"/>
    <path id="Tracé_215" data-name="Tracé 215" d="M869.91,418.631h-96.5a1.59,1.59,0,1,1,0-3.181h96.5a1.59,1.59,0,0,1,0,3.181Z" transform="translate(-518.661 -315.922)" fill="#fff"/>
    <path id="Tracé_216" data-name="Tracé 216" d="M833.26,434.033H773.412a1.59,1.59,0,0,1,0-3.181H833.26a1.59,1.59,0,1,1,0,3.181Z" transform="translate(-518.661 -325.04)" fill="#fff"/>
    <path id="Tracé_217" data-name="Tracé 217" d="M151.4,519.67h4.622l2.2-17.827H151.4Z" transform="translate(-89.63 -297.088)" fill="#ffb6b6"/>
    <path id="Tracé_218" data-name="Tracé 218" d="M299.858,710.354h1.3l5.079-2.065,2.722,2.065h0a5.8,5.8,0,0,1,5.8,5.8v.189h-14.9Z" transform="translate(-239.262 -489.28)" fill="#2f2e41"/>
    <path id="Tracé_219" data-name="Tracé 219" d="M49.051,507.659l4.137,2.062,9.92-14.974L57,491.7Z" transform="translate(-29.038 -291.085)" fill="#ffb6b6"/>
    <path id="Tracé_220" data-name="Tracé 220" d="M195.58,697.722l1.164.58,5.467.417,1.515,3.063h0a5.8,5.8,0,0,1,2.6,7.779l-.084.169-13.338-6.648Z" transform="translate(-175.948 -483.025)" fill="#2f2e41"/>
    <path id="Tracé_221" data-name="Tracé 221" d="M248.369,518.609l-29.387.767.511,14.31s-.511,3.833.511,4.855,1.533,1.022,1.022,2.811-1.832,18.88-1.832,18.88-12.061,21.326-11.55,21.838,1.022,0,.511,1.278-1.022.767-.511,1.278a18.82,18.82,0,0,1,1.278,1.533h8.33s.466-2.555.466-2.811.511-1.789.511-2.044,14.553-15.675,14.553-15.675l3.066-25.554,7.411,25.043s0,21.976.511,22.487.511.255.256,1.278-1.278.767-.511,1.533,1.022-.511.767.767l-.256,1.278,9.818.11s1.022-2.154.511-2.921-.48-.557.143-1.812.879-1.51.624-1.766-.255-1.615-.255-1.615-3.685-50.26-3.685-51.027a2.549,2.549,0,0,1,.212-1.15V531.24l-.979-3.687Z" transform="translate(-184.546 -376.991)" fill="#2f2e41"/>
    <path id="Tracé_222" data-name="Tracé 222" d="M1004.658,377.137a11.276,11.276,0,1,1,11.276-11.276A11.277,11.277,0,0,1,1004.658,377.137Z" transform="translate(-649.823 -279.889)" fill="#1d286c"/>
    <path id="Tracé_223" data-name="Tracé 223" d="M1017.4,373.04h-3.337V369.7a1.112,1.112,0,0,0-2.225,0v3.337h-3.337a1.112,1.112,0,1,0,0,2.225h3.337V378.6a1.112,1.112,0,1,0,2.225,0v-3.337h3.337a1.112,1.112,0,0,0,0-2.225Z" transform="translate(-658.118 -288.181)" fill="#fff"/>
    <path id="Tracé_224" data-name="Tracé 224" d="M532.281,460.724H489.437a3.3,3.3,0,0,0-3.293,3.293V480.28H535.57V464.017a3.3,3.3,0,0,0-3.289-3.293Z" transform="translate(-349.542 -342.724)" fill="#1d286c"/>
    <path id="Tracé_225" data-name="Tracé 225" d="M532.28,506.421H489.435a3.3,3.3,0,0,1-3.291-3.291V464.015a3.3,3.3,0,0,1,3.291-3.291H532.28a3.3,3.3,0,0,1,3.291,3.291V503.13A3.3,3.3,0,0,1,532.28,506.421Z" transform="translate(-349.542 -342.724)" fill="#1d286c" opacity="0.5"/>
    <circle id="Ellipse_28" data-name="Ellipse 28" cx="5.341" cy="5.341" r="5.341" transform="translate(147.176 125.859)" fill="#fff"/>
    <path id="Tracé_226" data-name="Tracé 226" d="M538.749,521.445h-25.1a1.59,1.59,0,0,1,0-3.181h25.1a1.59,1.59,0,1,1,0,3.181Z" transform="translate(-364.884 -376.787)" fill="#fff"/>
    <path id="Tracé_227" data-name="Tracé 227" d="M525.761,536.847H513.65a1.59,1.59,0,0,1,0-3.181h12.111a1.59,1.59,0,1,1,0,3.181Z" transform="translate(-364.884 -385.905)" fill="#fff"/>
    <path id="Tracé_228" data-name="Tracé 228" d="M475.659,568.137a11.276,11.276,0,1,1,11.276-11.276A11.277,11.277,0,0,1,475.659,568.137Z" transform="translate(-336.66 -392.96)" fill="#1d286c"/>
    <path id="Tracé_229" data-name="Tracé 229" d="M488.4,564.04h-3.337V560.7a1.112,1.112,0,1,0-2.225,0v3.337H479.5a1.112,1.112,0,1,0,0,2.225h3.337V569.6a1.112,1.112,0,1,0,2.225,0v-3.337H488.4a1.112,1.112,0,1,0,0-2.225Z" transform="translate(-344.951 -401.252)" fill="#fff"/>
    <path id="Tracé_230" data-name="Tracé 230" d="M412.288,333.476H369.443a3.3,3.3,0,0,1-3.291-3.291V291.07a3.3,3.3,0,0,1,3.291-3.291h42.845a3.3,3.3,0,0,1,3.291,3.291v39.115A3.3,3.3,0,0,1,412.288,333.476Z" transform="translate(-278.507 -240.341)" fill="#1d286c"/>
    <circle id="Ellipse_29" data-name="Ellipse 29" cx="5.341" cy="5.341" r="5.341" transform="translate(98.218 58.561)" fill="#1d286c"/>
    <path id="Tracé_231" data-name="Tracé 231" d="M418.757,352.5h-25.1a1.59,1.59,0,0,1,0-3.181h25.1a1.59,1.59,0,1,1,0,3.181Z" transform="translate(-293.85 -276.773)" fill="#1d286c"/>
    <path id="Tracé_232" data-name="Tracé 232" d="M405.769,367.9H393.658a1.59,1.59,0,1,1,0-3.181H405.77a1.59,1.59,0,1,1,0,3.181Z" transform="translate(-293.85 -285.891)" fill="#1d286c"/>
    <path id="Tracé_233" data-name="Tracé 233" d="M412.288,333.476H369.443a3.3,3.3,0,0,1-3.291-3.291V291.07a3.3,3.3,0,0,1,3.291-3.291h42.845a3.3,3.3,0,0,1,3.291,3.291v39.115A3.3,3.3,0,0,1,412.288,333.476Z" transform="translate(-278.507 -240.341)" fill="#1d286c" opacity="0.5"/>
    <circle id="Ellipse_30" data-name="Ellipse 30" cx="5.341" cy="5.341" r="5.341" transform="translate(98.218 58.561)" fill="#fff"/>
    <path id="Tracé_234" data-name="Tracé 234" d="M418.757,352.5h-25.1a1.59,1.59,0,0,1,0-3.181h25.1a1.59,1.59,0,1,1,0,3.181Z" transform="translate(-293.85 -276.773)" fill="#fff"/>
    <path id="Tracé_235" data-name="Tracé 235" d="M405.769,367.9H393.658a1.59,1.59,0,1,1,0-3.181H405.77a1.59,1.59,0,1,1,0,3.181Z" transform="translate(-293.85 -285.891)" fill="#fff"/>
    <circle id="Ellipse_31" data-name="Ellipse 31" cx="8.568" cy="8.568" r="8.568" transform="translate(83.251 38.741)" fill="#ff6584"/>
    <path id="Tracé_236" data-name="Tracé 236" d="M266.672,726.593a.484.484,0,0,1-.486.486H151.826a.486.486,0,0,1,0-.971h114.36a.484.484,0,0,1,.486.486Z" transform="translate(-151.341 -499.829)" fill="#ccc"/>
    <path id="Tracé_237" data-name="Tracé 237" d="M356.534,339.3a3.987,3.987,0,0,1-2.35,5.074,3.917,3.917,0,0,1-.667.184l-2.263,13.856-5.308-4.9,2.963-12.406a4,4,0,0,1,3.5-4.39,3.9,3.9,0,0,1,4.121,2.584Z" transform="translate(-266.545 -269.298)" fill="#ffb6b6"/>
    <path id="Tracé_238" data-name="Tracé 238" d="M275.881,382.089s4.12-5.443,19.07-5.294l8.486-3.083,1.939-17.777,6.788,1.616-.97,21.979-14.545,8.4-19.07,3.879Z" transform="translate(-225.068 -280.689)" fill="#3f3d56"/>
    <circle id="ab6171fa-7d69-4734-b81c-8dff60f9761b" cx="8.873" cy="8.873" r="8.873" transform="translate(39.751 72.313)" fill="#ffb6b6"/>
    <path id="Tracé_239" data-name="Tracé 239" d="M229.152,454.1a.169.169,0,0,1-.047-.006c-.164-.046-.293-.082.3-5.194l.638-4.041-.623-3.568-1.048-1.048,1.684-1.684,1.413-4.014-2.445-3.623-2.805-14.817a11.821,11.821,0,0,1,6.492-12.843l3.247-.949,1.181-2.166a3.884,3.884,0,0,1,3.381-2.025l5.946-.044a3.884,3.884,0,0,1,3.108,1.516l2.074,2.7,8.6,2.922-1.426,30.732h0a2.135,2.135,0,0,1,.147,3.14c-.089.09-.161.164-.2.212a9.475,9.475,0,0,0,.463,3.05l.431,2h0a1.229,1.229,0,0,0-.224,1.795l.549.649h0a3.1,3.1,0,0,1-2.655,3.482C249.467,451.346,229.193,454.1,229.152,454.1Z" transform="translate(-195.545 -305.64)" fill="#3f3d56"/>
    <path id="Tracé_240" data-name="Tracé 240" d="M264.788,390.813l-.113-.251.043,0Z" transform="translate(-218.434 -301.188)" fill="#2f2e41"/>
    <path id="Tracé_241" data-name="Tracé 241" d="M243.074,343.634a2.47,2.47,0,0,1,1.547-.669c.574.018,1.156.537,1.037,1.1a9.118,9.118,0,0,1,10.973-4.115,4.571,4.571,0,0,1,3.152,2.986,2.689,2.689,0,0,0,.339,1.1,1.258,1.258,0,0,0,1.339.339l.014,0a.419.419,0,0,1,.507.592l-.4.752a3.234,3.234,0,0,0,1.541-.033.419.419,0,0,1,.445.652,7.3,7.3,0,0,1-5.822,2.992c-1.612-.01-3.241-.565-4.81-.195a4.178,4.178,0,0,0-2.81,5.865,1.363,1.363,0,0,0-1.907.115,2.616,2.616,0,0,0-.571,2,9.285,9.285,0,0,0,.953,3.117,9.317,9.317,0,0,1-5.523-16.6Z" transform="translate(-203.569 -270.918)" fill="#2f2e41"/>
    <path id="Tracé_242" data-name="Tracé 242" d="M232.776,539.391a3.986,3.986,0,0,1-.939-5.512,3.91,3.91,0,0,1,.446-.53l-5.988-12.7,7.151,1.03,4.59,11.9a4,4,0,0,1-.4,5.6,3.9,3.9,0,0,1-4.859.206Z" transform="translate(-195.713 -378.2)" fill="#ffb6b6"/>
    <path id="Tracé_243" data-name="Tracé 243" d="M223.773,470.983l-9.528-21.414-.1-16.913,3-9.135a9.761,9.761,0,0,1,12.578-6.136l.066.024.028.065c.111.259,2.63,6.49-4.842,19.308l-1.5,8.771,5.276,20.1Z" transform="translate(-188.523 -316.726)" fill="#3f3d56"/>
  </g>
</svg>
