<svg xmlns="http://www.w3.org/2000/svg" width="321.903" height="238.616" viewBox="0 0 321.903 238.616">
  <g id="undraw_deliveries_-131-a_1_" data-name="undraw_deliveries_-131-a (1)" transform="translate(0 0.031)">
    <path id="Tracé_72" data-name="Tracé 72" d="M259.123,172.788l2.533-1.563c.241-.153.478-.315.722-.468a24.192,24.192,0,0,1-20.066-22.717,23.941,23.941,0,0,1,2.089-11.02,24.233,24.233,0,0,1,15.533-13.4l-.125,9.968,5.476-10.85a.217.217,0,0,1,.068,0,24.189,24.189,0,0,1,25.291,23.036c.02.461,0,.915,0,1.356a28.92,28.92,0,0,0,4.781-7.056c2.319-5.171,2.373-11.026,2.18-18.143-.366-14.105-.973-28.315-1.767-42.485a24.175,24.175,0,0,1-21.48-22.883c-.034-.743-.024-1.472,0-2.2a3.631,3.631,0,0,1,.027-.543c.047-.7.112-1.4.22-2.082a1.979,1.979,0,0,1,.061-.339q.149-.871.356-1.722c.054-.21.105-.424.163-.634a18.318,18.318,0,0,1,.573-1.824c.071-.2.156-.393.231-.59.173-.441.359-.875.556-1.305.105-.227.207-.451.319-.678.027-.058.051-.115.081-.173h0a24.172,24.172,0,0,1,28.4-12.267l-.163,12.973,5.425-10.714A24.04,24.04,0,0,1,322.135,60.53h.027c-.037.173-.092.339-.132.509-.075.319-.156.634-.244.949-.115.4-.244.8-.376,1.2-.1.295-.2.6-.312.888-.163.427-.339.844-.536,1.261-.108.244-.207.492-.339.732q-.465.936-1.017,1.831c-.125.207-.268.4-.4.61-.258.4-.519.8-.8,1.183-.173.237-.359.465-.543.7-.264.339-.536.678-.817.987-.2.227-.4.451-.614.678-.295.312-.6.614-.915.912-.207.2-.417.4-.634.59-.356.315-.729.617-1.105.912-.19.149-.373.305-.57.448q-.858.637-1.773,1.2c-.115.068-.237.125-.339.193-.509.3-1.017.583-1.563.848-.227.112-.465.21-.7.315-.437.2-.878.387-1.329.559-.261.1-.529.19-.8.281-.444.153-.9.292-1.356.417-.271.075-.539.149-.814.214-.5.119-1,.217-1.509.3a.172.172,0,0,0-.1.02q.5,8.965.892,17.94A24.175,24.175,0,0,1,336.989,86.71l-4.276,11.715,8.8-8.446a24.121,24.121,0,0,1,7.8,16.7,23.672,23.672,0,0,1-.614,6.663,24.179,24.179,0,0,1-44.475,6.588c0,.607.044,1.217.061,1.824.159,6.279.359,14.091-2.77,21.069-2.119,4.73-5.534,8.572-8.907,12.013-2.194,2.241-4.469,4.408-6.8,6.507a24.189,24.189,0,0,1-8.734,7.263q-5.747,4.428-11.9,8.293l-2.492,1.607c-2.3,1.427-4.662,2.892-6.978,4.408.407-.041.81-.085,1.224-.1a24.2,24.2,0,0,1,23.816,15.743l-15.115,12.3,16.614-3.855a24.2,24.2,0,0,1-34.679,21.785c.373.468.749.932,1.122,1.4.743.926,1.482,1.845,2.2,2.757,9.833,12.454,12.572,24.28,7.7,33.3l-5.92-3.2c4.747-8.775-2.373-20-7.063-25.925-.709-.9-1.434-1.8-2.167-2.713-6.283-7.8-13.4-16.655-13.223-27.508C230.462,190.551,246.361,180.695,259.123,172.788Z" transform="translate(-27.434 -31.25)" fill="#f2f2f2"/>
    <ellipse id="Ellipse_8" data-name="Ellipse 8" cx="154.444" cy="7.12" rx="154.444" ry="7.12" transform="translate(0 224.344)" fill="#3f3d56"/>
    <path id="Tracé_73" data-name="Tracé 73" d="M302.233,248.562c1.017-1.868-.136-4.157-1.451-5.825s-2.919-3.391-2.885-5.523c.047-3.052,3.286-4.852,5.876-6.469a28.751,28.751,0,0,0,5.272-4.242,7.726,7.726,0,0,0,1.624-2.17,8.857,8.857,0,0,0,.485-3.859q-.17-6.53-.644-13.047" transform="translate(-23.017 -19.753)" fill="none" stroke="#3f3d56" stroke-miterlimit="10" stroke-width="1.273"/>
    <path id="Tracé_74" data-name="Tracé 74" d="M314.938,207.489a4.767,4.767,0,0,0-2.373-3.9L311.5,205.7l.031-2.55a4.758,4.758,0,1,0,3.391,4.34Z" transform="translate(-22.526 -20.045)" fill="#57b793"/>
    <path id="Tracé_75" data-name="Tracé 75" d="M306.937,237.872a4.747,4.747,0,1,1,.227-3.831l-2.97,2.418,3.269-.76A4.747,4.747,0,0,1,306.937,237.872Z" transform="translate(-23.012 -18.218)" fill="#57b793"/>
    <path id="Tracé_76" data-name="Tracé 76" d="M304.487,229.345a4.747,4.747,0,0,1-4.971-4.533,4.679,4.679,0,0,1,.41-2.167,4.767,4.767,0,0,1,3.052-2.638l-.024,1.963,1.078-2.136h0a4.761,4.761,0,1,1,.444,9.511Z" transform="translate(-22.912 -18.944)" fill="#57b793"/>
    <path id="Tracé_77" data-name="Tracé 77" d="M315.332,222.116a4.752,4.752,0,1,1,2.1-8.89l-.841,2.306,1.729-1.661a4.747,4.747,0,0,1,1.539,3.286,4.64,4.64,0,0,1-.122,1.309,4.747,4.747,0,0,1-4.408,3.652Z" transform="translate(-22.204 -19.414)" fill="#57b793"/>
    <path id="Tracé_78" data-name="Tracé 78" d="M314.294,208.584c-1.1.122-2.167.465-3.269.532a3.557,3.557,0,0,1-3.011-1.054,15.059,15.059,0,0,1-.882-1.546,3.391,3.391,0,0,0-1.2-1.129,4.747,4.747,0,1,0,8.9,3.16C314.65,208.553,314.47,208.567,314.294,208.584Z" transform="translate(-22.523 -19.886)" opacity="0.1"/>
    <path id="Tracé_79" data-name="Tracé 79" d="M315.332,221.949a4.747,4.747,0,0,1-4.526-6.781,3.526,3.526,0,0,1,.956.96,15.324,15.324,0,0,0,.943,1.573,3.881,3.881,0,0,0,3.157,1.1c1.149-.054,2.255-.376,3.391-.481.156,0,.319-.027.478-.031a4.747,4.747,0,0,1-4.4,3.659Z" transform="translate(-22.205 -19.248)" opacity="0.1"/>
    <path id="Tracé_80" data-name="Tracé 80" d="M304.487,229.173a4.747,4.747,0,0,1-4.971-4.533,4.679,4.679,0,0,1,.41-2.167,3.906,3.906,0,0,1,1.017.966c.37.522.6,1.122,1.017,1.6a4.4,4.4,0,0,0,3.37,1.18c1.217-.031,2.312-.315,3.486-.4a4.767,4.767,0,0,1-4.33,3.353Z" transform="translate(-22.912 -18.771)" opacity="0.1"/>
    <path id="Tracé_81" data-name="Tracé 81" d="M306.945,237.687a4.756,4.756,0,0,1-8.677-3.9,4.938,4.938,0,0,1,1.044.932,18.753,18.753,0,0,0,1.275,1.7,5.922,5.922,0,0,0,3.94,1.383,20.4,20.4,0,0,0,2.418-.112Z" transform="translate(-23.02 -18.033)" opacity="0.1"/>
    <path id="Tracé_82" data-name="Tracé 82" d="M295.232,244.146s3.753-.115,4.886-.922,5.764-1.77,6.059-.475,5.645,6.442,1.4,6.463-9.853-.678-10.982-1.356S295.232,244.146,295.232,244.146Z" transform="translate(-23.191 -17.49)" fill="#656380"/>
    <path id="Tracé_83" data-name="Tracé 83" d="M307.655,248.637c-4.238.034-9.853-.678-10.982-1.356-.858-.522-1.2-2.4-1.316-3.272h-.125s.237,3.028,1.356,3.73,6.741,1.383,10.982,1.356c1.224,0,1.648-.448,1.624-1.092C309.035,248.386,308.567,248.63,307.655,248.637Z" transform="translate(-23.191 -17.366)" opacity="0.2"/>
    <path id="Tracé_84" data-name="Tracé 84" d="M103.068,242.366c-2.462-4.557.339-10.138,3.54-14.2s7.12-8.287,7.036-13.464c-.122-7.439-8.015-11.83-14.322-15.773A69.944,69.944,0,0,1,86.46,188.59a18.783,18.783,0,0,1-3.953-5.293c-1.3-2.909-1.268-6.215-1.183-9.4q.407-15.936,1.573-31.811" transform="translate(-37.15 -24.016)" fill="none" stroke="#3f3d56" stroke-miterlimit="10" stroke-width="1.273"/>
    <path id="Tracé_85" data-name="Tracé 85" d="M71.541,142.216a11.6,11.6,0,0,1,5.791-9.494l2.6,5.137-.078-6.218a11.6,11.6,0,1,1-8.31,10.586Z" transform="translate(-37.787 -24.729)" fill="#57b793"/>
    <path id="Tracé_86" data-name="Tracé 86" d="M91.041,216.278a11.6,11.6,0,0,0,21.9-4.747,11.447,11.447,0,0,0-.756-4.706,11.6,11.6,0,0,0-21.7.125l7.246,5.893-7.971-1.855A11.47,11.47,0,0,0,91.041,216.278Z" transform="translate(-36.598 -20.277)" fill="#57b793"/>
    <path id="Tracé_87" data-name="Tracé 87" d="M97.015,195.524a11.6,11.6,0,0,0,3.679-22.758l.061,4.777-2.611-5.2h-.031a11.6,11.6,0,0,0-1.082,23.182Z" transform="translate(-36.845 -22.043)" fill="#57b793"/>
    <path id="Tracé_88" data-name="Tracé 88" d="M70.579,177.931a11.6,11.6,0,1,0-5.127-21.7l2.034,5.618-4.2-4.059a11.548,11.548,0,0,0-3.764,8.009,11.315,11.315,0,0,0,.295,3.194,11.6,11.6,0,0,0,10.762,8.938Z" transform="translate(-38.571 -23.191)" fill="#57b793"/>
    <path id="Tracé_89" data-name="Tracé 89" d="M73.085,144.92c2.679.295,5.283,1.126,7.968,1.292s5.639-.475,7.337-2.563a36.172,36.172,0,0,0,2.146-3.777,8.232,8.232,0,0,1,2.923-2.75,11.6,11.6,0,1,1-21.7,7.7C72.211,144.842,72.651,144.873,73.085,144.92Z" transform="translate(-37.772 -24.34)" opacity="0.1"/>
    <path id="Tracé_90" data-name="Tracé 90" d="M70.559,177.524A11.61,11.61,0,0,0,81.6,160.978a8.582,8.582,0,0,0-2.333,2.333,37.61,37.61,0,0,1-2.3,3.835c-1.807,2.123-4.893,2.818-7.693,2.692s-5.5-.926-8.29-1.18c-.387-.034-.78-.061-1.17-.071A11.6,11.6,0,0,0,70.559,177.524Z" transform="translate(-38.552 -22.784)" opacity="0.1"/>
    <path id="Tracé_91" data-name="Tracé 91" d="M96.985,195.1a11.6,11.6,0,0,0,11.128-16.333,9.381,9.381,0,0,0-2.451,2.373,39.758,39.758,0,0,1-2.519,3.909c-1.956,2.18-5.245,2.95-8.212,2.879-2.872-.061-5.639-.766-8.494-.987A11.61,11.61,0,0,0,96.985,195.1Z" transform="translate(-36.814 -21.623)" opacity="0.1"/>
    <path id="Tracé_92" data-name="Tracé 92" d="M90.963,215.823a11.6,11.6,0,0,0,21.9-4.747,11.447,11.447,0,0,0-.756-4.706,11.618,11.618,0,0,0-2.543,2.268,44.6,44.6,0,0,1-3.106,4.123c-2.373,2.326-6.2,3.289-9.609,3.391a49.758,49.758,0,0,1-5.886-.329Z" transform="translate(-36.519 -19.822)" opacity="0.1"/>
    <path id="Tracé_93" data-name="Tracé 93" d="M142.468,214.572l-44.756,9.155-1.017-.1-39.331-3.967V169.816l48.147-8.138,34.924,4.069.01.22,0,.109Z" transform="translate(3.743 10.551)" fill="#1d286c"/>
    <path id="Tracé_94" data-name="Tracé 94" d="M140.059,214.31,95.3,223.464l-1.017-.1v-51.1l43.749-6.561Z" transform="translate(6.152 10.814)" opacity="0.1"/>
    <path id="Tracé_95" data-name="Tracé 95" d="M140.447,166.076l-.014.01-43.739,6.442-39.331-2.712,48.147-8.138,34.924,4.069.01.22Z" transform="translate(3.743 10.551)" opacity="0.05"/>
    <path id="Tracé_96" data-name="Tracé 96" d="M188.621,216.482l-44.756,9.155-1.017-.1-39.331-3.967V171.726l48.147-8.138,34.924,4.069.01.22,0,.108Z" transform="translate(6.754 10.676)" fill="#3f3d56"/>
    <path id="Tracé_97" data-name="Tracé 97" d="M186.212,216.219l-44.756,9.155-1.017-.1v-51.1l43.749-6.561Z" transform="translate(9.163 10.939)" opacity="0.1"/>
    <path id="Tracé_98" data-name="Tracé 98" d="M186.6,167.986l-.014.01-43.739,6.442-39.331-2.713,48.147-8.138,34.924,4.069.01.22Z" transform="translate(6.754 10.676)" opacity="0.05"/>
    <path id="Tracé_99" data-name="Tracé 99" d="M159.656,170.647,114.9,179.8l-1.017-.1-39.331-3.967V125.891l48.147-8.138,34.924,4.069.01.22,0,.109Z" transform="translate(4.864 7.685)" fill="#3f3d56"/>
    <path id="Tracé_100" data-name="Tracé 100" d="M157.247,170.385l-44.756,9.155-1.017-.1v-51.1l43.749-6.561Z" transform="translate(7.274 7.948)" opacity="0.1"/>
    <path id="Tracé_101" data-name="Tracé 101" d="M157.635,122.151l-.014.01L113.883,128.6l-39.331-2.713,48.147-8.138,34.924,4.069.01.22Z" transform="translate(4.864 7.685)" opacity="0.05"/>
    <path id="Tracé_102" data-name="Tracé 102" d="M181.036,171.059l-23.358,4.781-.532-.054-20.527-2.072V147.7l25.128-4.248,18.228,2.126.007.115v.054Z" transform="translate(8.914 9.362)" fill="#3f3d56"/>
    <path id="Tracé_103" data-name="Tracé 103" d="M179.779,170.922,156.421,175.7l-.532-.054V148.981l22.836-3.425Z" transform="translate(10.172 9.499)" opacity="0.1"/>
    <path id="Tracé_104" data-name="Tracé 104" d="M179.982,145.748l-.007.007-22.829,3.364L136.619,147.7l25.128-4.248,18.228,2.126.007.115Z" transform="translate(8.914 9.362)" opacity="0.05"/>
    <path id="Tracé_105" data-name="Tracé 105" d="M122.152,123.633l-23.358,4.777-.532-.051-20.527-2.072V100.275l25.128-4.248,18.228,2.126.007.115v.054Z" transform="translate(5.072 6.268)" fill="#3f3d56"/>
    <path id="Tracé_106" data-name="Tracé 106" d="M120.894,123.5l-23.358,4.777L97,128.222V101.555l22.836-3.425Z" transform="translate(6.329 6.405)" opacity="0.1"/>
    <path id="Tracé_107" data-name="Tracé 107" d="M121.1,98.322l-.007.007-22.829,3.364-20.527-1.417,25.128-4.248,18.228,2.126.007.115Z" transform="translate(5.072 6.268)" opacity="0.05"/>
    <path id="Tracé_108" data-name="Tracé 108" d="M160.665,122.678l-23.358,4.777-.532-.051-20.527-2.072V99.32l25.128-4.248L159.6,97.2l.007.115v.054Z" transform="translate(7.585 6.205)" fill="#1d286c"/>
    <path id="Tracé_109" data-name="Tracé 109" d="M159.408,122.541l-23.358,4.777-.532-.051V100.6l22.836-3.425Z" transform="translate(8.842 6.343)" opacity="0.1"/>
    <path id="Tracé_110" data-name="Tracé 110" d="M159.611,97.367l-.007.007-22.829,3.364L116.248,99.32l25.128-4.248L159.6,97.2l.007.115Z" transform="translate(7.585 6.205)" opacity="0.05"/>
    <path id="Tracé_111" data-name="Tracé 111" d="M172.124,98.17l-23.358,4.777-.532-.051-20.527-2.072V74.811l25.128-4.248,18.228,2.126.007.115v.054Z" transform="translate(8.333 4.606)" fill="#3f3d56"/>
    <path id="Tracé_112" data-name="Tracé 112" d="M170.867,98.032l-23.358,4.777-.532-.051V76.091l22.836-3.425Z" transform="translate(9.59 4.743)" opacity="0.1"/>
    <path id="Tracé_113" data-name="Tracé 113" d="M171.069,72.858l-.007.007-22.829,3.364-20.527-1.417,25.128-4.248,18.228,2.126.007.115Z" transform="translate(8.333 4.606)" opacity="0.05"/>
    <path id="Tracé_114" data-name="Tracé 114" d="M224.365,78.23c-.248,2.2-1.929,3.981-2.553,6.1-.936,3.2.678,6.646,2.9,9.155a20.266,20.266,0,0,0,14.112,6.693,6.072,6.072,0,0,0,2.333-.254,5.066,5.066,0,0,0,1.773-1.214,11.339,11.339,0,0,0,2.923-6.344,33.931,33.931,0,0,0,.081-7.09,4.011,4.011,0,0,0-.265-1.431,3.635,3.635,0,0,0-.919-1.129,21.361,21.361,0,0,0-3.95-2.872,4.436,4.436,0,0,1-1.655-1.265,4.14,4.14,0,0,1-.512-1.516l-.437-2.224a4.361,4.361,0,0,0-.641-1.8c-.77-1.038-2.245-1.18-3.536-1.231l-4.747-.186c-1.475-.058-3.414-.481-4.855-.19-1.356.268-.9,1.509-.654,2.635A19.051,19.051,0,0,1,224.365,78.23Z" transform="translate(-27.999 -28.633)" fill="#ffc0c6"/>
    <path id="Tracé_115" data-name="Tracé 115" d="M224.365,78.23c-.248,2.2-1.929,3.981-2.553,6.1-.936,3.2.678,6.646,2.9,9.155a20.266,20.266,0,0,0,14.112,6.693,6.072,6.072,0,0,0,2.333-.254,5.066,5.066,0,0,0,1.773-1.214,11.339,11.339,0,0,0,2.923-6.344,33.931,33.931,0,0,0,.081-7.09,4.011,4.011,0,0,0-.265-1.431,3.635,3.635,0,0,0-.919-1.129,21.361,21.361,0,0,0-3.95-2.872,4.436,4.436,0,0,1-1.655-1.265,4.14,4.14,0,0,1-.512-1.516l-.437-2.224a4.361,4.361,0,0,0-.641-1.8c-.77-1.038-2.245-1.18-3.536-1.231l-4.747-.186c-1.475-.058-3.414-.481-4.855-.19-1.356.268-.9,1.509-.654,2.635A19.051,19.051,0,0,1,224.365,78.23Z" transform="translate(-27.999 -28.633)" opacity="0.1"/>
    <path id="Tracé_116" data-name="Tracé 116" d="M254,171.66l-2.014,22.08c-.526,5.791-1.061,11.606-2.092,17.323-.339,1.97-.773,3.93-1.268,5.873-1.377,5.395-3.374,10.667-4.018,16.2-.02.159-.037.339-.054.485a14.522,14.522,0,0,1-.678,3.594c-.339.844-.817,1.614-1.166,2.448a16.045,16.045,0,0,0-.871,5.32,22.934,22.934,0,0,0-7.9-2.713c-1.356-.2-2.831-.339-3.73-1.356-1.017-1.105-.9-2.8-.729-4.282q.8-6.917,1.594-13.827a36.036,36.036,0,0,1,1.017-5.873c.183-.641.4-1.271.627-1.9.309-.868.62-1.736.854-2.628a31.648,31.648,0,0,0,.671-4.35c.546-4.638,1.2-9.267,1.78-13.9l.031-.244a142.161,142.161,0,0,0,1.333-21.161c-.027-1.048-.071-2.1-.139-3.147-.095-1.522-.234-2.329,1.017-3.282a23.72,23.72,0,0,1,4.821-2.475c.858-.373,10.3-3.73,10.511-2.991a18.408,18.408,0,0,1,.678,4.821A53.646,53.646,0,0,1,254,171.66Z" transform="translate(-27.488 -22.799)" fill="#605d82"/>
    <path id="Tracé_117" data-name="Tracé 117" d="M249.691,209.032c-.339,1.97-.773,3.93-1.268,5.873-1.377,5.395-3.374,10.667-4.018,16.2-.02.159-.037.339-.054.485-4.211-6.015-7.758-12.484-11.867-18.564.309-.868.62-1.736.854-2.628a31.65,31.65,0,0,0,.705-4.377c.546-4.638,1.2-9.267,1.78-13.9l.031-.244a14.4,14.4,0,0,0,1.017,2.852c2.76,5.608,9.317,8.443,12.525,13.81Q249.555,208.784,249.691,209.032Z" transform="translate(-27.285 -20.768)" opacity="0.1"/>
    <path id="Tracé_118" data-name="Tracé 118" d="M216.56,163.367a104.286,104.286,0,0,0,1.577,13.4l1.482,9.155c.81,5.018,1.658,10.135,4.031,14.627,1.777,3.364,4.333,6.232,6.649,9.246,5.689,7.412,9.965,15.811,15.36,23.439,1.57,2.217,3.811,4.618,6.486,4.154,1.756-.3,3.031-1.767,4.408-2.892,1.628-1.329,3.587-2.3,4.869-3.97s1.533-4.435-.2-5.622a9.374,9.374,0,0,0-1.987-.814c-2.689-1.017-4.432-3.648-5.537-6.307s-1.78-5.51-3.255-7.982c-3.208-5.367-9.768-8.2-12.528-13.813-1.546-3.14-1.7-6.781-1.811-10.263l-.3-8.921a6.5,6.5,0,0,1,.339-2.882c1.054-2.373,4.242-2.6,6.825-2.9a23.311,23.311,0,0,0,8.365-2.638,8.675,8.675,0,0,0,3.73-3.319,10.664,10.664,0,0,0,.909-4.493l.9-16.17a10.2,10.2,0,0,0-.339-4.133c-1.231-3.275-5.367-4.347-8.863-4.191-6.5.292-12.5,3.089-18.648,4.981a47.664,47.664,0,0,1-4.621,1.2c-1.356.275-3.052.163-4.354.6-2.333.787-2.275,5.893-2.6,8.009a67.23,67.23,0,0,0-.871,12.495Z" transform="translate(-28.325 -24.409)" fill="#605d82"/>
    <path id="Tracé_119" data-name="Tracé 119" d="M249.216,232.461a4.145,4.145,0,0,1,.909,2.228,76,76,0,0,1,1.288,13.464,2.231,2.231,0,0,0,.241,1.221,1.557,1.557,0,0,0,.634.509c1.658.79,3.581-.312,4.964-1.522,2.56-2.241,4.727-5.252,4.872-8.653a19.909,19.909,0,0,1,.092-2.624,10.92,10.92,0,0,1,1.631-3.516,29.854,29.854,0,0,0,2.713-6.042c.251-.793.42-1.79-.2-2.343a2.18,2.18,0,0,0-.736-.383l-7.493-2.78c-.651-.241-2.265,3.906-2.519,4.36a3.432,3.432,0,0,1-2.509,1.994c-1.258.258-2.811-.115-4.011.526C247.052,229.979,248.066,231.305,249.216,232.461Z" transform="translate(-26.278 -18.802)" fill="#535070"/>
    <path id="Tracé_120" data-name="Tracé 120" d="M238.811,234.3a2.282,2.282,0,0,0-.57-.722,2.553,2.553,0,0,0-1.149-.39c-1.424-.244-3.113-.4-4.1.658-.922.993-.763,2.611-1.533,3.73a11.6,11.6,0,0,0-.787,1.017,3.818,3.818,0,0,0-.339,1.824c-.041,1.726-.081,3.458.041,5.181a7.23,7.23,0,0,0,1.244,4.093c1.451,1.817,4.069,2.078,6.388,2.194l1.882.1a3.73,3.73,0,0,0,1.539-.142,2.526,2.526,0,0,0,1.329-1.461c.98-2.434-.57-5.055-1.526-7.5C240.13,240.074,240.326,236.958,238.811,234.3Z" transform="translate(-27.428 -18.084)" fill="#535070"/>
    <path id="Tracé_121" data-name="Tracé 121" d="M224.077,66.96a1.536,1.536,0,0,1,.105-.726c.275-.485.993-.339,1.536-.217,2.18.549,4.479.051,6.727.18s4.777,1.251,5.228,3.455a16.346,16.346,0,0,0,4.147-4.259,5.109,5.109,0,0,0,1.082-3.119c-.122-1.614-1.475-2.821-2.712-3.845l-3.73-3.052a5.666,5.666,0,0,0-1.675-1.065,8.334,8.334,0,0,0-2.713-.153c-2.712,0-5.622-1.238-8.039,0a8.581,8.581,0,0,0-2.506,2.279l-3.333,3.947a2.106,2.106,0,0,0-.536.905,3.984,3.984,0,0,0,.241,1.441c.156.882-.224,1.824.068,2.672.485,1.4,2.194,1.6,3.238,2.411.387.3,1,1.319,1.461,1.305C223.483,69.1,224.053,67.611,224.077,66.96Z" transform="translate(-28.254 -29.789)" fill="#3f3d56"/>
    <circle id="Ellipse_9" data-name="Ellipse 9" cx="10.681" cy="10.681" r="10.681" transform="translate(190.798 27.449)" fill="#ffc0c6"/>
    <path id="Tracé_122" data-name="Tracé 122" d="M232.915,89.687a5.174,5.174,0,0,0-5.022-3.465,1.509,1.509,0,0,1-.929-.119,1.285,1.285,0,0,1-.383-.475,18.9,18.9,0,0,1-1.556-3.682c-.17-.566-.4-1.234-.977-1.38a1.311,1.311,0,0,0-1.241.543,11.868,11.868,0,0,1-.888,1.116c-1.356,1.2-3.73.105-5.15,1.207-.234.18-.427.41-.678.576a3.086,3.086,0,0,1-.783.339,75.062,75.062,0,0,0-8.1,3.163c.949,5.71,1.919,11.528,4.143,16.868,1.058,2.543,2.255,5.035,3.1,7.656,1.878,5.808,1.96,12.023,1.984,18.13,0,4.177,0,8.443-1.356,12.4a12,12,0,0,0-.763,2.713,2.821,2.821,0,0,0,.956,2.536,3.225,3.225,0,0,0,1.475.519c2.343.339,4.7-.278,7.008-.814a188.641,188.641,0,0,1,18.777-3.052l10.545-1.356a6.168,6.168,0,0,0,2.184-.566c1.929-1.054,2.112-3.957.912-5.8-.573-.885-1.383-1.611-1.868-2.546a2.365,2.365,0,0,1,.309-2.9c1.7-1.322,1.187-3.774,1.268-5.917q.339-8.992-.092-17.97a35.177,35.177,0,0,1-.061-3.73,32.909,32.909,0,0,1,1.163-6.225l3.2-12.613a6.576,6.576,0,0,0-3.957-2.543c-1.516-.38-3.1-.492-4.594-.956-3.052-.949-5.791-3.357-8.989-3.133a1.645,1.645,0,0,0-.7.17c-.719.41-.607,1.448-.651,2.275a6.3,6.3,0,0,1-2.936,4.438,53.027,53.027,0,0,0-4.554,3.079,2.034,2.034,0,0,0-.807,1.519Z" transform="translate(-28.934 -28.185)" fill="#3f3d56"/>
    <path id="Tracé_123" data-name="Tracé 123" d="M191.962,100.459a12.545,12.545,0,0,1-2.245,1.156,7.46,7.46,0,0,0-2.153,1.044,3.408,3.408,0,0,0-.749.926,4.113,4.113,0,0,0,3.791,6.127,8.265,8.265,0,0,0,2.8-.837l7.534-3.279c1.275-.553,2.651-1.2,3.255-2.451a.59.59,0,0,0,.075-.39.641.641,0,0,0-.312-.339,16.875,16.875,0,0,1-4.384-4.137c-.309-.42-.678-1.411-1.126-1.665C196.858,95.729,193.24,99.632,191.962,100.459Z" transform="translate(-30.299 -26.992)" fill="#ffc0c6"/>
    <path id="Tracé_124" data-name="Tracé 124" d="M268.317,97.717l2.777,3.174c.6.678,1.194,1.356,1.736,2.089a24.3,24.3,0,0,1,3.18,5.991,10.476,10.476,0,0,1,.9,4.954,12.207,12.207,0,0,1-.7,2.519,31.155,31.155,0,0,1-1.889,4.543,25.855,25.855,0,0,1-2.112,3.177,74.288,74.288,0,0,1-7.042,8.053,9.059,9.059,0,0,0-1.76,3.73c-.763,2.343-2.577,4.17-4.33,5.9a11.932,11.932,0,0,1-1.861,1.6,6.036,6.036,0,0,1-3.391.963,3.73,3.73,0,0,1-1.522-.315,3.938,3.938,0,0,1-1.936-3.279,7.018,7.018,0,0,1,.583-3.513c1.594-3.53,5.686-5.059,8.578-7.636a28,28,0,0,0,4.276-5.283,18.328,18.328,0,0,0,2.16-3.787c.644-1.726.393-3.767.96-5.517.237-.743.678-1.411.919-2.146a2.542,2.542,0,0,0-.129-2.241,3.238,3.238,0,0,0-1.258-.922c-1.848-.936-3.916-2.143-4.269-4.187a4.483,4.483,0,0,1,.827-3.2,13.225,13.225,0,0,1,2.329-2.441C266.147,99.219,267.506,98.415,268.317,97.717Z" transform="translate(-26.12 -26.911)" fill="#ffc0c6"/>
    <path id="Tracé_125" data-name="Tracé 125" d="M190.726,104.544a5.138,5.138,0,0,0-2.092-2.492,3.852,3.852,0,0,0-3.052,0,11.569,11.569,0,0,0-2.672,1.614l-2.394,1.767a5.89,5.89,0,0,0-1.421,1.312,5.462,5.462,0,0,0-.739,2.034,14.774,14.774,0,0,0-.376,5.022c.38,2.713,2.007,5.059,3.8,7.12,1.119,1.282,2.5,2.577,4.2,2.635a1.929,1.929,0,0,0,1.858-.936,2.317,2.317,0,0,0,.166-.834c.183-3.011-.9-5.951-2.15-8.694a5.378,5.378,0,0,1-.678-2.336.631.631,0,0,1,.1-.393.658.658,0,0,1,.407-.2c1.719-.339,4.682,1,5.886-.912C192.353,107.989,191.282,105.667,190.726,104.544Z" transform="translate(-30.847 -26.649)" fill="#ffc0c6"/>
    <path id="Tracé_126" data-name="Tracé 126" d="M223.548,63.805a1.58,1.58,0,0,1,.108-.726c.275-.488.993-.339,1.536-.217,2.18.549,4.479.051,6.727.18s4.774,1.251,5.228,3.455a16.454,16.454,0,0,0,4.147-4.259,5.126,5.126,0,0,0,1.082-3.123c-.122-1.614-1.478-2.821-2.713-3.842l-3.73-3.052a5.649,5.649,0,0,0-1.672-1.065,8.339,8.339,0,0,0-2.713-.153c-2.712,0-5.622-1.238-8.039,0A8.581,8.581,0,0,0,221,53.284l-3.336,3.947a2.112,2.112,0,0,0-.532.905,3.984,3.984,0,0,0,.241,1.441c.156.882-.224,1.824.068,2.668.485,1.407,2.194,1.607,3.238,2.414.387.3,1,1.319,1.461,1.305C222.948,65.948,223.517,64.456,223.548,63.805Z" transform="translate(-28.288 -29.995)" fill="#3f3d56"/>
    <path id="Tracé_127" data-name="Tracé 127" d="M202.21,90.68a4.428,4.428,0,0,0-1.119,1.041c-.39.593-.471,1.356-.807,1.967-.719,1.336-2.4,1.814-3.452,2.909a1.082,1.082,0,0,0-.339.57,1.258,1.258,0,0,0,.281.821l5.066,7.961c1.7.149,3.3-.909,4.991-.766a5.034,5.034,0,0,0,1.878.081,5.459,5.459,0,0,0,1.2-.736c1.017-.637,2.346-.712,3.191-1.55a4.267,4.267,0,0,0,.905-3.211,12.671,12.671,0,0,0-.3-2.95c-.746-3.052-3.082-5.4-4.547-8.11-.715-1.319-1.1-2.089-2.611-1.183S203.638,89.636,202.21,90.68Z" transform="translate(-29.633 -27.602)" fill="#3f3d56"/>
    <path id="Tracé_128" data-name="Tracé 128" d="M260.135,86.849a11.892,11.892,0,0,1,2.55,2.231c.77.993,1.207,2.214,1.95,3.231a35.3,35.3,0,0,0,2.509,2.658,20.263,20.263,0,0,1,2.9,4.716,70.736,70.736,0,0,1-6.551,7.392,2.1,2.1,0,0,1-1,.651,1.6,1.6,0,0,1-1.4-.573c-.366-.38-.624-.854-.973-1.251a5,5,0,0,0-3.1-1.5,21.264,21.264,0,0,0-3.509-.051,1.356,1.356,0,0,1-.749-.125,1.238,1.238,0,0,1-.407-.468c-1.356-2.333-.932-5.262-.448-7.927l1.109-6.1a13.712,13.712,0,0,1,.926-3.391c.42-.9,1.356-2.424,2.516-2.153S259.155,86.144,260.135,86.849Z" transform="translate(-26.048 -27.796)" fill="#3f3d56"/>
    <path id="Tracé_129" data-name="Tracé 129" d="M131.7,99.124,108.342,103.9l-.532-.051-20.527-2.072V75.766l25.128-4.248,18.228,2.126.007.115v.054Z" transform="translate(5.695 4.668)" fill="#1d286c"/>
    <path id="Tracé_130" data-name="Tracé 130" d="M130.443,98.987l-23.358,4.777-.532-.051V77.046l22.836-3.425Z" transform="translate(6.952 4.806)" opacity="0.1"/>
    <path id="Tracé_131" data-name="Tracé 131" d="M130.646,73.813l-.007.007L107.81,77.184,87.283,75.766l25.128-4.248,18.228,2.126.007.115Z" transform="translate(5.695 4.668)" opacity="0.05"/>
    <path id="Tracé_132" data-name="Tracé 132" d="M143.159,74.934,119.8,79.715l-.532-.054L98.742,77.589V51.576l25.128-4.248L142.1,49.453l.007.115v.054Z" transform="translate(6.443 3.09)" fill="#3f3d56"/>
    <path id="Tracé_133" data-name="Tracé 133" d="M141.9,74.8l-23.358,4.781-.532-.054V52.856l22.836-3.425Z" transform="translate(7.7 3.227)" opacity="0.1"/>
    <path id="Tracé_134" data-name="Tracé 134" d="M142.1,49.623l-.007.007-22.829,3.364L98.742,51.576l25.128-4.248L142.1,49.453l.007.115Z" transform="translate(6.443 3.09)" opacity="0.05"/>
  </g>
</svg>
