<svg xmlns="http://www.w3.org/2000/svg" width="266.48" height="244.677" viewBox="0 0 266.48 244.677">
  <g id="undraw_map_re_60yf" transform="translate(0)">
    <path id="Tracé_169" data-name="Tracé 169" d="M310.567,260.572a42.869,42.869,0,0,1-1.857,13.413c-.046.158-.1.316-.158.473H281.225a24.525,24.525,0,0,1,1.847-5.569c2.274-4.827,5.987-8.958,9.654-13.06,5.05-5.653,9.979-11.26,10.758-18.611a42.219,42.219,0,0,1,4.753,9.812,11.531,11.531,0,0,0-3.815,2.339c-.306.288-.631.705-.473,1.1.148.334.557.446.919.52.873.167,1.745.334,2.618.492.687.139,1.383.269,2.079.4A45.577,45.577,0,0,1,310.567,260.572Z" transform="translate(-73.392 -30.208)" fill="#f2f2f2"/>
    <path id="Tracé_170" data-name="Tracé 170" d="M332.56,255.879c-4.381,2.664-7.166,6.785-9.44,11.4a11.66,11.66,0,0,0-5.3,2.785c-.316.288-.641.706-.473,1.1.139.334.557.446.919.52.863.167,1.745.334,2.608.492-.083.195-.167.4-.251.594H291.661a40.952,40.952,0,0,1,4.353-4.975c.343-.344.7-.668,1.058-1a43.316,43.316,0,0,1,12.531-7.909,44.085,44.085,0,0,1,22.956-3.008Z" transform="translate(-72.429 -28.523)" fill="#f2f2f2"/>
    <path id="Tracé_171" data-name="Tracé 171" d="M298.267,274.56H272.481a41.891,41.891,0,0,1,.037-6.2,44.341,44.341,0,0,1,18.426-32.238c-1.337,4.762-.65,9.5.743,14.249-.195.065-.39.121-.566.195A11.532,11.532,0,0,0,287.3,252.9c-.306.288-.631.706-.473,1.1.139.334.557.446.919.52.873.167,1.745.334,2.608.492.7.139,1.392.269,2.089.408.325.056.65.121.975.186.046.111.074.214.121.316,1.634,4.5,3.416,9.041,4.251,13.654a31.866,31.866,0,0,1,.427,3.5C298.249,273.576,298.267,274.068,298.267,274.56Z" transform="translate(-74.208 -30.309)" fill="#f2f2f2"/>
    <circle id="Ellipse_20" data-name="Ellipse 20" cx="8.727" cy="8.727" r="8.727" transform="translate(18.009 0)" fill="#fd6584"/>
    <path id="Tracé_172" data-name="Tracé 172" d="M135.129,52.174a4.33,4.33,0,0,0-3.654-3.037c-.019,0-.037,0-.056,0a.542.542,0,0,0-.074-.017c-3.991-.516-8.6,1.393-10.262,5.177a4.228,4.228,0,0,0-3.541-1.726,4.312,4.312,0,0,0-3.857,3.109.506.506,0,0,0,.225.554,2.211,2.211,0,0,0,.912.463q1.087.23,2.182.422,2.137.374,4.3.6a63.877,63.877,0,0,0,8.8.333,6.741,6.741,0,0,0,2.818-.495,4.192,4.192,0,0,0,1.616-1.411A4.756,4.756,0,0,0,135.129,52.174Z" transform="translate(-88.859 -47.579)" fill="#f0f0f0"/>
    <path id="Tracé_173" data-name="Tracé 173" d="M118.523,62.827a4.33,4.33,0,0,0-3.654-3.037c-.019,0-.037,0-.056,0a.542.542,0,0,0-.074-.017c-3.991-.516-8.6,1.393-10.262,5.177a4.228,4.228,0,0,0-3.541-1.726,4.312,4.312,0,0,0-3.857,3.109.506.506,0,0,0,.225.554,2.211,2.211,0,0,0,.912.463q1.087.23,2.182.422,2.137.374,4.3.6a63.877,63.877,0,0,0,8.8.333,6.741,6.741,0,0,0,2.818-.495,4.193,4.193,0,0,0,1.616-1.411,4.756,4.756,0,0,0,.6-3.976Z" transform="translate(-90.392 -46.595)" fill="#f0f0f0"/>
    <path id="Tracé_174" data-name="Tracé 174" d="M197.686,194.7c-.221.324-.8.709-1.028,1.028L196.9,195l-.082-.17L196.3,193.8l-13.088-26.377-.005-.005-22.188-44.694v-.005l-.509-1.023v0L149.532,99.57l-.519-1.049q.586.015,1.172.046l.524,1.054,10.95,22.069.005.005.509,1.023v.005L183.8,166.282v.005l.509,1.023v.005l13.089,26.357.175.355Z" transform="translate(-85.596 -43.011)" fill="#3f3d56"/>
    <path id="Tracé_175" data-name="Tracé 175" d="M200.513,120.766H102.562c.262-.344.529-.689.807-1.028h96.338C199.984,120.077,200.251,120.422,200.513,120.766Z" transform="translate(-89.884 -41.052)" fill="#3f3d56"/>
    <path id="Tracé_176" data-name="Tracé 176" d="M205.727,160.56c-.031.344-.067.689-.113,1.028H180.522V160.56Z" transform="translate(-82.688 -37.284)" fill="#3f3d56"/>
    <path id="Tracé_177" data-name="Tracé 177" d="M106.06,116.636v82.725c-.355-.375-.694-.756-1.028-1.136V117.773C105.367,117.392,105.706,117.012,106.06,116.636Z" transform="translate(-89.656 -41.339)" fill="#3f3d56"/>
    <rect id="Rectangle_129" data-name="Rectangle 129" width="95.65" height="1.028" transform="translate(15.89 150.789)" fill="#3f3d56"/>
    <path id="Tracé_178" data-name="Tracé 178" d="M202.413,194.715h.118v-.17A1.683,1.683,0,0,1,202.413,194.715Zm-.792-72.1c-.262-.344-.529-.689-.807-1.028A61.577,61.577,0,0,0,155.58,98.455q-.586-.031-1.172-.046c-.586-.015-1.172-.026-1.763-.026A61.5,61.5,0,0,0,107.4,118.2c-.355.375-.694.756-1.028,1.136q-.979,1.1-1.892,2.252c-.278.339-.545.684-.807,1.028a61.551,61.551,0,0,0,2.7,78.2c.334.38.673.761,1.028,1.136a61.607,61.607,0,0,0,95.418-6.02c.226-.319.453-.637.673-.961A61.2,61.2,0,0,0,213.918,167.2c.046-.339.082-.684.113-1.028q.3-3.007.3-6.1a61.339,61.339,0,0,0-12.713-37.461ZM212.885,167.2a60.121,60.121,0,0,1-9.922,26.711q-.208.316-.432.632a1.686,1.686,0,0,1-.118.17c-.036.057-.077.113-.118.17a60.59,60.59,0,0,1-94.9,5.542c-.355-.391-.7-.781-1.028-1.182a60.539,60.539,0,0,1-1.4-76.633c.273-.344.545-.689.828-1.028.185-.231.375-.458.576-.684.329-.4.673-.792,1.028-1.182a60.489,60.489,0,0,1,45.249-20.306q1.149,0,2.282.046c.4.01.787.031,1.177.051A60.583,60.583,0,0,1,199.5,121.583c.283.339.555.684.828,1.028A60.671,60.671,0,0,1,213,166.174c-.036.344-.072.689-.118,1.028Zm-10.472,27.513h.118v-.17a1.693,1.693,0,0,1-.118.17Z" transform="translate(-90.956 -43.024)" fill="#ccc"/>
    <path id="Tracé_179" data-name="Tracé 179" d="M142.614,81.557q0,.424-.027.841a12.74,12.74,0,0,1-1.194,4.625c-.005.012-.012.024-.017.035-.032.067-.065.135-.1.2a12.592,12.592,0,0,1-.678,1.2,12.8,12.8,0,0,1-10.507,5.913l.127,7.288,1.653-.87.3.561-1.935,1.019.237,13.536,0,.181-1.278.284,0-.182.4-21.817a12.777,12.777,0,0,1-9.039-3.933c-.081-.083-.16-.169-.238-.254l-.009-.01a12.829,12.829,0,0,1-2.334-3.612l.038.042c-5.281-13.271-2.208-19.422,6.078-16.517l.134-.066a12.828,12.828,0,0,1,16.619,5.045c.078.131.153.265.226.4A12.749,12.749,0,0,1,142.614,81.557Z" transform="translate(-88.699 -45.759)" fill="#e5e5e5"/>
    <path id="Tracé_180" data-name="Tracé 180" d="M156.948,71.8a19.259,19.259,0,0,1-1.938,7.326,16.725,16.725,0,0,1-10.7,8.94.046.046,0,0,1-.026.005,16.235,16.235,0,0,1-3.645.519h-.1c-.129.005-.257.005-.386.005-.087,0-.175,0-.262-.005A16.792,16.792,0,0,1,123.359,71.8v-.185a11.641,11.641,0,0,1,.463-3.167c0-.005.005-.01.005-.015a10.974,10.974,0,0,1,2.925-4.694c3.367-3.331,8.7-5.423,13.4-8.734C150.456,47.753,158.023,54.966,156.948,71.8Z" transform="translate(-87.965 -47.287)" fill="#e5e5e5"/>
    <path id="Tracé_181" data-name="Tracé 181" d="M155,78.147a16.725,16.725,0,0,1-10.7,8.94.046.046,0,0,1-.026.005,16.534,16.534,0,0,1-3.629.483h-.118q-.324.008-.648,0a16.82,16.82,0,0,1-16.4-17.006,17.206,17.206,0,0,1,.329-3.1c0-.005.005-.01.005-.015a10.974,10.974,0,0,1,2.925-4.694,16.795,16.795,0,0,0,13.227,19.931c.159.031.319.062.478.087.463.077.925.134,1.393.17a16.773,16.773,0,0,0,13.16-4.8Z" transform="translate(-87.953 -46.312)" opacity="0.2"/>
    <path id="Tracé_182" data-name="Tracé 182" d="M48.416,49.712l2.536-1.335-.387-.735L48.4,48.783l-.163-9.353h0l0-.2v-.035l-.084-4.8-.118-6.763-.09-5.2h-.047l-.088,4.8h0l-.13,7.075-.09,4.882v.041l-.026,1.393-.514,27.94,0,.185,1.715.481,0-.186Z" transform="translate(4.342 2.071)" fill="#3f3d56"/>
    <path id="Tracé_183" data-name="Tracé 183" d="M204.579,125.946c-10.661-2.136-21.356-4.074-32.181-5.26a175.7,175.7,0,0,0-30.932-.894c-9.317.628-18.714,2.1-27.467,5.462-6.745,2.589-13.935,6.506-17.578,13.038-3.512,6.3-2.142,13.558,1.682,19.368,4.6,6.99,11.776,11.78,19.236,15.281,8.493,3.986,17.578,6.57,26.674,8.768,4.613,1.115,9.251,2.122,13.89,3.124.968.209,1.381-1.277.41-1.487-9.354-2.021-18.735-4.049-27.857-6.975-8.441-2.708-17.08-6.176-23.993-11.862-5.592-4.6-10.91-11.318-10.58-18.957.333-7.7,6.794-13.077,13.126-16.387,7.914-4.136,16.905-6.15,25.716-7.2a156.245,156.245,0,0,1,30.377-.413c13.519,1.029,26.837,3.415,40.1,6.087" transform="translate(-90.638 -41.076)"/>
    <path id="Tracé_184" data-name="Tracé 184" d="M152.738,136.627c4.486,2.242,7.218,5.2,7.218,8.452,0,7-12.662,12.67-28.282,12.67a53.122,53.122,0,0,1-17.9-2.86c5.178,2.588,12.7,4.218,21.064,4.218,15.62,0,28.282-5.673,28.282-12.67C163.124,142.482,159.076,138.951,152.738,136.627Z" transform="translate(-88.849 -39.493)" fill="#f1f1f1"/>
    <path id="Tracé_185" data-name="Tracé 185" d="M162.3,141.028c5.062,2.53,8.145,5.872,8.145,9.537,0,7.9-14.288,14.3-31.913,14.3a59.941,59.941,0,0,1-20.194-3.228c5.843,2.921,14.325,4.759,23.768,4.759,17.625,0,31.913-6.4,31.913-14.3C174.016,147.634,169.449,143.65,162.3,141.028Z" transform="translate(-88.428 -39.087)" fill="#f1f1f1"/>
    <path id="Tracé_186" data-name="Tracé 186" d="M148.269,138.566c3.161,1.58,5.085,3.666,5.085,5.955,0,4.93-8.921,8.927-19.925,8.927a37.425,37.425,0,0,1-12.609-2.015c3.648,1.823,8.944,2.972,14.84,2.972,11,0,19.925-4,19.925-8.927C155.586,142.691,152.734,140.2,148.269,138.566Z" transform="translate(-88.199 -39.314)" fill="#f1f1f1"/>
    <path id="Tracé_187" data-name="Tracé 187" d="M131.533,147.769c-6.5,0-9.66-1.783-11.168-3.279a1.963,1.963,0,0,1,1.389-3.352H144.43a1.484,1.484,0,0,1,.919,2.651C143.039,145.605,138.767,147.769,131.533,147.769Z" transform="translate(-88.294 -39.077)" fill="#3f3d56"/>
    <path id="Tracé_188" data-name="Tracé 188" d="M135.462,126.467a8.6,8.6,0,0,0-6.192-1.694c3.915.967.826,6.377,4.391,11.988,1.943,3.058-1.836,4.557-5.435,4.967a8.627,8.627,0,0,0,7.236-15.261Z" transform="translate(-87.515 -40.593)" fill="#3f3d56"/>
    <rect id="Rectangle_130" data-name="Rectangle 130" width="0.835" height="19.873" transform="translate(43.1 83.053)" fill="#3f3d56"/>
    <path id="Tracé_189" data-name="Tracé 189" d="M208.015,129.161a20.652,20.652,0,0,0-28.777,4.994c-6.567,9.326-13.157,33.779-8.505,47.946,13.875-14.656,35.191-16.179,42.276-24.163C220.579,149.406,217.34,135.728,208.015,129.161Z" transform="translate(-83.736 -40.53)" fill="#1d286c"/>
    <circle id="b262ea8c-1946-46c9-a449-3a1996c39394" cx="6.735" cy="6.735" r="6.735" transform="translate(105.371 96.277)" fill="#fff"/>
    <circle id="bcc29a3a-8123-4529-80aa-6f70df2823cf" cx="4.412" cy="4.412" r="4.412" transform="translate(76.891 140.083)" fill="#1d286c"/>
    <path id="Tracé_190" data-name="Tracé 190" d="M201.169,140.727a6.735,6.735,0,1,1-11.633,6.792,6.734,6.734,0,0,0,10.254-8.463,6.736,6.736,0,0,1,1.379,1.67Z" transform="translate(-81.856 -39.269)" fill="#231f20" opacity="0.2"/>
    <path id="Tracé_191" data-name="Tracé 191" d="M212.973,157.5c-7.085,7.984-28.4,9.507-42.276,24.163a28.57,28.57,0,0,1-1-4.1c13.868-13.324,34-15.007,40.843-22.722,6.127-6.9,5.173-17.179-.356-24.328C217.769,137.539,219.91,149.679,212.973,157.5Z" transform="translate(-83.687 -40.058)" fill="#231f20" opacity="0.2"/>
    <path id="Tracé_192" data-name="Tracé 192" d="M185.483,220.691h-5.027L178.064,201.3h7.42Z" transform="translate(16.437 18.582)" fill="#ffb6b6"/>
    <path id="Tracé_193" data-name="Tracé 193" d="M278.356,271.956H262.145v-.205a6.31,6.31,0,0,1,6.309-6.31h0l2.961-2.247,5.525,2.247h1.415Z" transform="translate(-75.153 -27.81)" fill="#2f2e41"/>
    <path id="Tracé_194" data-name="Tracé 194" d="M167.992,217.75l-4.9,1.108-6.6-18.389,7.238-1.634Z" transform="translate(14.445 18.354)" fill="#ffb6b6"/>
    <path id="Tracé_195" data-name="Tracé 195" d="M261.457,268.54l-15.813,3.57-.045-.2a6.31,6.31,0,0,1,4.765-7.545h0l2.394-2.844,5.884.975,1.38-.312Z" transform="translate(-76.695 -27.964)" fill="#2f2e41"/>
    <path id="Tracé_196" data-name="Tracé 196" d="M286,158.218c2.357,7.109,2.108,14.826-.567,23.109l-1.143,46.632c1.89,2.08,3.076,10.562.165,16.635-3.888,8.11-1.21,19.326-3.958,24.706h-7.972l-1.959-21.906-1.725-2.47-.263-19.758c-1.059-2.507-2.286-4.993-.132-7.9l-.057-3.432-.306-18.294-12.023,17.581a8.452,8.452,0,0,1-5.068,7.411l3.723,16.433c6.512,5.574,4.92,14.2,5.027,22.187l2.135,9.424-9.811.877-4.33-12.78L242.87,248.8,234.4,217.317l5.9-13.7,2.413-5.6L256.2,166.734Z" transform="translate(-77.714 -37.5)" fill="#2f2e41"/>
    <path id="Tracé_197" data-name="Tracé 197" d="M205.485,135.559a3.8,3.8,0,0,0,5.8-.518l13,3.653-2.133-6.683-12.015-2.445a3.82,3.82,0,0,0-4.651,5.993Z" transform="translate(-80.489 -40.196)" fill="#ffb8b8"/>
    <path id="Tracé_198" data-name="Tracé 198" d="M215.3,131.791l12.686-.093h0a21.208,21.208,0,0,1,10.489-.238l.673.156,5.294-.6c3.156-6.309,9.013-12.013,16.875-17.268a10.783,10.783,0,0,1,15.9,2.66h0a10.8,10.8,0,0,1-2.895,14.531l-23.957,14.085a14.045,14.045,0,0,1-6.928,1.936h0l-.058.03-13.666-5.12-7.03-.895-9.533-2.77Z" transform="translate(-79.676 -41.826)" fill="#1d286c"/>
    <circle id="Ellipse_21" data-name="Ellipse 21" cx="11.969" cy="11.969" r="11.969" transform="translate(174.553 36.424)" fill="#ffb8b8"/>
    <path id="Tracé_199" data-name="Tracé 199" d="M274.158,100.853a15.834,15.834,0,0,0,1.888-4.775,14.372,14.372,0,0,0-1.968-11.521,4.382,4.382,0,0,0-1.708-1.612,1.884,1.884,0,0,0-2.184.365,3.928,3.928,0,0,0-1.248-2.86,6.922,6.922,0,0,0-2.774-1.56,11.528,11.528,0,0,0-11.476,2.837c-.578.588-.372-2.349-1.013-1.832a3.19,3.19,0,0,1-2.268.809c-.819-.087-2.326,2.833-2.335,2.009-.862.864-1.242,4.507-.972,5.7s4.281.664,5.431,1.072a20.019,20.019,0,0,0,2.378.455A5.93,5.93,0,0,1,260.3,96.46a7.856,7.856,0,0,1,1.81-1.755,2.659,2.659,0,0,1,2.415-.3A2.987,2.987,0,0,1,266,96.258c.261.77.362,1.587.628,2.354.781,2.253,1.183,4.618,3.36,5.153C271.706,104.186,272.947,102.581,274.158,100.853Z" transform="translate(-76.458 -44.869)" fill="#2f2e41"/>
    <path id="Tracé_200" data-name="Tracé 200" d="M285.39,160.565l-1.314-2.628c-1.609-9.967-3.2-19.262-1.039-27.624.136-7.3-2.12-14.157-8.385-17.9l-2.826-1.69-1.43-3.628-13.172.322-.039,4.756-4.718,7.524v.031l.295,40.944,1.3,4.225-1.965,4.915,1.043,3.136,25.969-4.152,3.02-.485a5.4,5.4,0,0,0,1-.438,5.517,5.517,0,0,0,2.411-2.694c.027-.066.05-.128.074-.194a5.4,5.4,0,0,0,.349-1.667A5.545,5.545,0,0,0,285.39,160.565Z" transform="translate(-76.081 -42.22)" fill="#1d286c"/>
    <path id="Tracé_201" data-name="Tracé 201" d="M284.127,160.574a5.4,5.4,0,0,1-.349,1.667l-2.485,2.888a5.393,5.393,0,0,1-1,.438l-3.02.485,4.369-8.214-9.6-21.022Z" transform="translate(-74.24 -39.476)" opacity="0.2"/>
    <path id="Tracé_202" data-name="Tracé 202" d="M293.259,182.414a3.991,3.991,0,0,1-.6-6.091l-6.32-12.7,7.317.891,4.88,11.922a4.013,4.013,0,0,1-5.274,5.976Z" transform="translate(-72.92 -37.001)" fill="#ffb8b8"/>
    <path id="Tracé_203" data-name="Tracé 203" d="M269.217,143.2l4.794-.662s.463,7.229,2.756,8.324,1.52,1.276,1.791,2.436A6.106,6.106,0,0,0,281.87,157c1.817.8,10.08,20.893,10.08,20.893l6.958-1.623a22.384,22.384,0,0,1-1.262-5.412c-.244-2.8-3.413-9.394-4.457-10.373s-.631-2.706-1.172-5.025-.165-.169-1.067-4.034-11.036-27.032-11.461-30.6-5.4-5.67-5.4-5.67l-3.866.9Z" transform="translate(-74.501 -41.475)" fill="#1d286c"/>
    <path id="f02c4e45-f306-4b42-b3ad-5ddd3016d7d2" d="M196.361,271.784H347.267a.483.483,0,1,0,0-.967H196.361a.483.483,0,0,0,0,.967Z" transform="translate(-81.27 -27.106)" fill="#ccc"/>
  </g>
</svg>
