<svg xmlns="http://www.w3.org/2000/svg" width="162.259" height="250" viewBox="0 0 162.259 250">
  <g id="undraw_wash_hands_nwl2" transform="translate(0 -0.001)">
    <path id="Tracé_135" data-name="Tracé 135" d="M152.179,95.142l-2.461-.008-9.44-.029-2.1,0-6.359-.016-1.571-.008h-.7l-32.792-.09-.521,0h-.5l-1.994-.008-5.629-.013-2.716-.008-5.637-.016V13.294l69.539-6.141,2.462-.218Z" transform="translate(9.259 0.805)" opacity="0.2"/>
    <path id="Tracé_136" data-name="Tracé 136" d="M281.778,136.506v.008l-6.892-.021-2.548-.008-2.1,0-3.011-.008-1.2,0-2.142,0-1.112,0h-.464l-.685,0h-.012l-5.173-.012-.935,0-13.264-.037-2.384-.008-9.727-.029-1.309,0H228.3a.013.013,0,0,0,0-.008h-.5l-1.994-.008-5.629-.012v0l-2.716-.008-1.867,0h-.418l-5.813-.016V54.666l72-6.359v.217Z" transform="translate(-122.801 -40.567)" fill="#e6e6e6"/>
    <circle id="Ellipse_10" data-name="Ellipse 10" cx="2.872" cy="2.872" r="2.872" transform="translate(119.797 0.561)" opacity="0.2"/>
    <circle id="Ellipse_11" data-name="Ellipse 11" cx="2.872" cy="2.872" r="2.872" transform="translate(118.156 0.561)" fill="#3f3d56"/>
    <rect id="Rectangle_125" data-name="Rectangle 125" width="45.129" height="3.282" transform="translate(100.044 3.595) rotate(-4.568)" opacity="0.2"/>
    <rect id="Rectangle_126" data-name="Rectangle 126" width="45.129" height="3.282" transform="translate(98.403 3.595) rotate(-4.568)" fill="#e6e6e6"/>
    <path id="Tracé_137" data-name="Tracé 137" d="M269.458,112.756c-2.412-9.141-3.7-9.846-3.7-9.846l-13.6-6.847-.09-.033-7.647,5.641L241.125,96.6l-.164-.144-.205.082a75.27,75.27,0,0,0-11.783,5.982l-.139-.021-5.329,2.65-.956,3.532-1.1,4.074-3.8,17.649v0l2.716.008v0l5.629.012.886-4.349,1.108,4.357h.5a.013.013,0,0,1,0,.008H229l1.309,0,9.727.029,2.384.008,13.264.037.935,0,5.173.012h.012l.685,0v-.012l.353-3.844.213-1.075,1.005,4.927,0,.008,2.142,0,1.2,0,3.011.008,2.1,0v-.008C271.94,126.647,270.344,116.12,269.458,112.756Z" transform="translate(-121.84 -35.028)" fill="#1d286c" opacity="0.56"/>
    <path id="Tracé_138" data-name="Tracé 138" d="M255.451,87.522l.005.018c-.006,0-.008-.005-.005-.018-.054-.187-.741-2.4-2.708-1.261-2.053,1.188-4.506-6.271-4.506-6.271s-6.179,1.7-9.951,1.44a2.336,2.336,0,0,1-.743-.179A9.627,9.627,0,0,0,239.356,92.2l-.666,5.936,3.423,5.325,7.608-5.706s.1,1.452.408-3.522a9.634,9.634,0,0,0,5.6-7.35C255.571,87.231,255.463,87.459,255.451,87.522Z" transform="translate(-119.642 -36.889)" fill="#ffb8b8" opacity="0.56"/>
    <path id="Tracé_139" data-name="Tracé 139" d="M255.774,87.93c.84-1.912,3.093-7.539-.863-10.93-3.273-2.805-14.817-5.309-18.507,2.139a2.317,2.317,0,0,0,1.188,3.164c.053-.11.114-.216.171-.324a2.275,2.275,0,0,0,.572.122c3.772.261,9.951-1.44,9.951-1.44s2.453,7.458,4.506,6.271c1.967-1.138,2.654,1.074,2.708,1.261.012-.064.12-.292.274-.643a9.691,9.691,0,0,0,.1-1.285c0,.076.006.151.006.227a9.7,9.7,0,0,1-.107,1.44Z" transform="translate(-119.691 -37.559)" fill="#2f2e41" opacity="0.56"/>
    <ellipse id="Ellipse_12" data-name="Ellipse 12" cx="63.18" cy="9.846" rx="63.18" ry="9.846" transform="translate(0 230.308)" fill="#e6e6e6"/>
    <path id="Tracé_140" data-name="Tracé 140" d="M153.748,206.5,140,222.412l-.254.3L59.183,210.4V118.5h94.36Z" transform="translate(6.869 13.754)" fill="#3f3d56"/>
    <rect id="Rectangle_127" data-name="Rectangle 127" width="0.82" height="16.457" transform="translate(74.022 167.741) rotate(-85.711)" fill="#e6e6e6"/>
    <rect id="Rectangle_128" data-name="Rectangle 128" width="0.82" height="17.275" transform="translate(114.23 171.434) rotate(-85.914)" fill="#e6e6e6"/>
    <path id="Tracé_141" data-name="Tracé 141" d="M139.848,141.988l-80.822-4.923-.05.819,36.95,2.251.628,73.882.821-.007-.628-73.824,43.05,2.622Z" transform="translate(6.845 15.909)" fill="#e6e6e6"/>
    <path id="Tracé_142" data-name="Tracé 142" d="M145.343,206.5,131.6,222.412V118.5h13.539Z" transform="translate(15.275 13.754)" opacity="0.2"/>
    <path id="Tracé_143" data-name="Tracé 143" d="M196.718,162.679h-7.385v-4.923l19.693-3.692,1.231-2.462,77.129,2.051v6.974L272,166.244l-10.051-.283s-15.18,12.718-33.231,11.487S196.718,162.679,196.718,162.679Z" transform="translate(-125.127 -28.577)" fill="#e6e6e6"/>
    <path id="Tracé_144" data-name="Tracé 144" d="M261.811,157.459l-4.308,3.077-12.066-.291s0,0,0,0h-.021l-.919-.021h0l-.763-.021-2.408-.057-.2,0-2.129-.049-.078,0-2.646-.062-.172,0-1.957-.049-.316,0-2.3-.057-.738-.016-4.131-.1-1.042-.025-10.979-.263s-7.824.39-8.193-1.883a1.116,1.116,0,0,1-.012-.168c0-1.292,1.362-1.567,2.65-1.534a11.962,11.962,0,0,1,2.273.3l3.151.078,1.965.045,6.166.152,5.272.127,1.867.049,2.671.066,1.058.025,3.93.094,1.838.045,3.881.094Z" transform="translate(-123.143 -28.076)" fill="#ccc"/>
    <circle id="Ellipse_13" data-name="Ellipse 13" cx="0.821" cy="0.821" r="0.821" transform="translate(114.873 129.794)" fill="#3f3d56"/>
    <ellipse id="Ellipse_14" data-name="Ellipse 14" cx="7.795" cy="0.821" rx="7.795" ry="0.821" transform="translate(108.309 126.922)" fill="#ccc"/>
    <path id="Tracé_145" data-name="Tracé 145" d="M3.043,0h7V3.282H0V3.043A3.043,3.043,0,0,1,3.043,0Z" transform="translate(108.27 116.593) rotate(13.698)" fill="#3f3d56"/>
    <path id="Tracé_146" data-name="Tracé 146" d="M0,0H3.692V.119A1.522,1.522,0,0,1,2.171,1.641H1.522A1.522,1.522,0,0,1,0,.119V0Z" transform="translate(108.657 119.888) rotate(8.546)" fill="#3f3d56"/>
    <path id="Tracé_147" data-name="Tracé 147" d="M237.876,150.344l-5.1-1.243a1.635,1.635,0,0,1-1.708.9l-.406-.061a1.635,1.635,0,0,1-1.388-1.69l-.869-.212a3.279,3.279,0,0,0-.287.75l1.156.282a1.635,1.635,0,0,0,1.388,1.69l.406.061a1.636,1.636,0,0,0,1.708-.9l5.1,1.243.777-3.189-.189-.046Z" transform="translate(-120.625 -29.004)" opacity="0.2"/>
    <path id="Tracé_148" data-name="Tracé 148" d="M236.4,157.434h0a3,3,0,0,1-2.992-3.153l.449-8.539,5.539-.205v8.9a3,3,0,0,1-3,3Z" transform="translate(-120.011 -29.281)" fill="#3f3d56"/>
    <path id="Tracé_149" data-name="Tracé 149" d="M239.032,146.232h-4.988c.865-1.312.325-2.657-.885-4.017a.546.546,0,0,1,.41-.906h1.9a3.861,3.861,0,0,1,3.563,4.1Z" transform="translate(-120.056 -29.772)" fill="#3f3d56"/>
    <path id="Tracé_150" data-name="Tracé 150" d="M234.8,142.215a.546.546,0,0,1,.41-.906h-1.641a.546.546,0,0,0-.41.906c1.211,1.36,1.75,2.7.885,4.017h1.641C236.55,144.92,236.01,143.575,234.8,142.215Z" transform="translate(-120.056 -29.772)" opacity="0.2"/>
    <path id="Tracé_151" data-name="Tracé 151" d="M213.562,150.053l6.309,2.23s15.008,1.2,13.061,5.015-14.793,1.351-14.793,1.351l-6.083-4.224Z" transform="translate(-122.489 -28.757)" fill="#ffb8b8"/>
    <path id="Tracé_152" data-name="Tracé 152" d="M222.334,155.266a1.637,1.637,0,0,0-1.633,1.557,1.228,1.228,0,0,0-.309-.207,1.646,1.646,0,1,0-1.37.224,1.229,1.229,0,1,0,2.057,1.114,1.638,1.638,0,1,0,1.254-2.688Z" transform="translate(-121.82 -28.344)" fill="#fff"/>
    <path id="Tracé_153" data-name="Tracé 153" d="M224.908,156a1.637,1.637,0,0,0-1.633,1.557,1.229,1.229,0,0,0-.309-.207,1.646,1.646,0,1,0-1.37.224,1.229,1.229,0,1,0,2.057,1.114A1.638,1.638,0,1,0,224.908,156Z" transform="translate(-121.521 -28.259)" fill="#fff"/>
    <path id="Tracé_154" data-name="Tracé 154" d="M222.542,154.918l-5.711,9.432-12.008-8.062-13.793-9.255L182.713,125.2l-8.456-15.483,10.6-3.122s3.647.139,8.361,8.792,8.907,23.639,8.907,23.639l5.633,4.386Z" transform="translate(-126.877 -33.802)" fill="#1d286c"/>
    <path id="Tracé_155" data-name="Tracé 155" d="M222.542,154.918l-5.711,9.432-12.008-8.062-13.793-9.255L182.713,125.2l-8.456-15.483,10.6-3.122s3.647.139,8.361,8.792,8.907,23.639,8.907,23.639l5.633,4.386Z" transform="translate(-126.877 -33.802)" opacity="0.2"/>
    <path id="Tracé_156" data-name="Tracé 156" d="M243.283,160.693l-14.63-.349-1.161-1.317-.821-.931-.9-1.017-1-1.128,1.7-2.634.808-1.255,3.274,2.15,2.322,1.522s1.945.648,4.259,1.625A28.3,28.3,0,0,1,243.283,160.693Z" transform="translate(-121.013 -28.524)" fill="#ffb8b8"/>
    <circle id="Ellipse_15" data-name="Ellipse 15" cx="10.032" cy="10.032" r="10.032" transform="translate(55.615 36.937)" fill="#ffb8b8"/>
    <path id="Tracé_157" data-name="Tracé 157" d="M183.762,85.928l-1,14.546,12.54,1.5s0-12.038,1-13.543S183.762,85.928,183.762,85.928Z" transform="translate(-125.89 -36.2)" fill="#ffb8b8"/>
    <path id="Tracé_158" data-name="Tracé 158" d="M213.077,103.829,196.834,96.95s-7.759-5.987-12.311-1.561l-2.044,2.922S170.034,105,170.034,110.52l1.411,27.918s-4.013,15.549,2.006,16.552l32.6,3.01a11.284,11.284,0,0,0,.5-12.54l1.5-16.552Z" transform="translate(-127.367 -35.291)" fill="#1d286c"/>
    <path id="Tracé_159" data-name="Tracé 159" d="M198.713,103.283l11.035-.5s.809.853,3.317,10.384,5.712,25.229,5.712,25.229l16.032,20.31-7.795,7.8L206.09,143.525l-2.863-23.187Z" transform="translate(-124.038 -34.244)" fill="#1d286c"/>
    <path id="Tracé_160" data-name="Tracé 160" d="M208.039,150.751l-36.063-3.173s-3.563,22.735-3.061,31.764,1,23.073,1,23.073l-4.013,61.194,15.549-2.006,2.006-50.661,6.521-27.587,7.524,35.111,5.016,45.143,13.543-1.5L211.55,207.43S215.563,158.275,208.039,150.751Z" transform="translate(-127.846 -29.044)" fill="#2f2e41"/>
    <path id="Tracé_161" data-name="Tracé 161" d="M209.194,247.946l4.514,1.5s9.53-2.508,7.022,4.013-9.53,5.518-9.53,5.518-8.527,6.521-12.038,1.5l2.006-10.533Z" transform="translate(-123.986 -17.395)" fill="#2f2e41"/>
    <path id="Tracé_162" data-name="Tracé 162" d="M176.386,247.946l4.514,1.5s9.53-2.508,7.022,4.013-9.53,5.518-9.53,5.518-8.527,6.521-12.038,1.5l2.006-10.533Z" transform="translate(-127.794 -17.395)" fill="#2f2e41"/>
    <path id="Tracé_163" data-name="Tracé 163" d="M184.346,93.6s-10.533-7.524-5.016-16.553c3.828-6.264,11.759-5.768,16.259-4.877a7.6,7.6,0,0,1,5.561,4.375c.752,1.756.752,3.511-2.257,3.511-6.019,0-3.01,4.514-3.01,4.514s-4.013,1-3.01,4.514S184.346,93.6,184.346,93.6Z" transform="translate(-126.473 -37.857)" fill="#2f2e41"/>
    <circle id="Ellipse_16" data-name="Ellipse 16" cx="1.231" cy="1.231" r="1.231" transform="translate(120.617 129.794)" fill="#fff"/>
    <path id="Tracé_164" data-name="Tracé 164" d="M241.157,158.333a1.63,1.63,0,0,0-.611-1.276,1.648,1.648,0,0,0-1.03-.365c-.021,0-.037,0-.057,0a1.634,1.634,0,0,0-3.073-.275,1.216,1.216,0,0,0-1.555.369,14.183,14.183,0,0,1-3.52-.919,1.631,1.631,0,0,0-1.473.927,1.563,1.563,0,0,0-.168.714,1.618,1.618,0,0,0,.238.837,1.229,1.229,0,0,0-1.059,1.214,1.182,1.182,0,0,0,.07.4l2.3.057a1.1,1.1,0,0,0,.07-.234,1.688,1.688,0,0,0,.246.238l1.957.049.111-.086a.7.7,0,0,0,.061.09l2.646.062a.549.549,0,0,0,.045-.057.447.447,0,0,0,.033.062l2.129.049a1.211,1.211,0,0,0,.164-.46.166.166,0,0,0,.037.021,1.306,1.306,0,0,0-.021.217,1.358,1.358,0,0,0,.021.226l2.408.057a1.274,1.274,0,0,0,.033-.283,1.237,1.237,0,0,0-.263-.755,1.629,1.629,0,0,0,.263-.886Zm-4.394-.033a1.253,1.253,0,0,1-.242.226c.025.062.037.127.057.189a1.17,1.17,0,0,1,.365-.263,1.605,1.605,0,0,1-.18-.152Z" transform="translate(-120.54 -28.129)" fill="#fff"/>
    <circle id="Ellipse_17" data-name="Ellipse 17" cx="1.231" cy="1.231" r="1.231" transform="translate(131.694 130.204)" fill="#fff"/>
    <path id="Tracé_165" data-name="Tracé 165" d="M251.082,158.7a1.63,1.63,0,0,0-.611-1.276,1.648,1.648,0,0,0-1.03-.365c-.02,0-.037,0-.057,0a1.634,1.634,0,0,0-3.073-.275,1.216,1.216,0,0,0-1.555.369,14.183,14.183,0,0,1-3.52-.919,1.631,1.631,0,0,0-1.473.927,1.564,1.564,0,0,0-.168.714,1.617,1.617,0,0,0,.238.837,1.229,1.229,0,0,0-1.059,1.214,1.182,1.182,0,0,0,.07.4l2.3.057a1.1,1.1,0,0,0,.07-.234,1.692,1.692,0,0,0,.246.238l1.957.049.111-.086a.7.7,0,0,0,.062.09l2.646.062a.548.548,0,0,0,.045-.057.449.449,0,0,0,.033.062l2.129.049a1.21,1.21,0,0,0,.164-.46.167.167,0,0,0,.037.021,1.3,1.3,0,0,0-.02.217,1.354,1.354,0,0,0,.02.226l2.408.057a1.274,1.274,0,0,0,.033-.283,1.238,1.238,0,0,0-.263-.755A1.629,1.629,0,0,0,251.082,158.7Zm-4.394-.033a1.254,1.254,0,0,1-.242.226c.025.062.037.127.057.189a1.169,1.169,0,0,1,.365-.263,1.6,1.6,0,0,1-.18-.152Z" transform="translate(-119.388 -28.087)" fill="#fff"/>
    <circle id="Ellipse_18" data-name="Ellipse 18" cx="0.923" cy="0.923" r="0.923" transform="translate(114.258 129.999)" fill="#fff"/>
    <path id="Tracé_166" data-name="Tracé 166" d="M235.139,158.351a1.222,1.222,0,0,0-.458-.957,1.236,1.236,0,0,0-.772-.274c-.015,0-.028,0-.043,0a1.225,1.225,0,0,0-2.3-.206.912.912,0,0,0-1.166.277,10.637,10.637,0,0,1-2.64-.689,1.223,1.223,0,0,0-1.1.7,1.173,1.173,0,0,0-.126.535,1.213,1.213,0,0,0,.178.628.922.922,0,0,0-.794.911.887.887,0,0,0,.052.3l1.723.043a.828.828,0,0,0,.052-.175,1.266,1.266,0,0,0,.185.178l1.468.037.083-.065a.521.521,0,0,0,.046.068l1.985.046a.41.41,0,0,0,.034-.043.332.332,0,0,0,.025.046l1.6.037a.907.907,0,0,0,.123-.345.125.125,0,0,0,.028.015.978.978,0,0,0-.015.163,1.015,1.015,0,0,0,.015.169l1.806.043a.956.956,0,0,0,.025-.212.928.928,0,0,0-.2-.566,1.222,1.222,0,0,0,.2-.665Zm-3.3-.025a.941.941,0,0,1-.182.169c.018.046.028.1.043.142a.877.877,0,0,1,.274-.2,1.209,1.209,0,0,1-.135-.114Z" transform="translate(-120.881 -28.044)" fill="#fff"/>
    <circle id="Ellipse_19" data-name="Ellipse 19" cx="0.923" cy="0.923" r="0.923" transform="translate(101.13 129.999)" fill="#fff"/>
    <path id="Tracé_167" data-name="Tracé 167" d="M223.376,158.351a1.222,1.222,0,0,0-.458-.957,1.236,1.236,0,0,0-.772-.274c-.015,0-.028,0-.043,0a1.225,1.225,0,0,0-2.3-.206.912.912,0,0,0-1.166.277,10.635,10.635,0,0,1-2.64-.689,1.223,1.223,0,0,0-1.1.7,1.173,1.173,0,0,0-.126.535,1.213,1.213,0,0,0,.178.628.922.922,0,0,0-.794.911.887.887,0,0,0,.052.3l1.723.043a.826.826,0,0,0,.052-.175,1.265,1.265,0,0,0,.185.178l1.468.037.083-.065a.522.522,0,0,0,.046.068l1.985.046a.41.41,0,0,0,.034-.043.336.336,0,0,0,.025.046l1.6.037a.907.907,0,0,0,.123-.345.125.125,0,0,0,.028.015.975.975,0,0,0-.015.163,1.018,1.018,0,0,0,.015.169l1.806.043a.953.953,0,0,0,.025-.212.928.928,0,0,0-.2-.566,1.222,1.222,0,0,0,.2-.665Zm-3.3-.025a.941.941,0,0,1-.182.169c.018.046.028.1.043.142a.878.878,0,0,1,.274-.2,1.2,1.2,0,0,1-.136-.114Z" transform="translate(-122.247 -28.044)" fill="#fff"/>
    <path id="Tracé_168" data-name="Tracé 168" d="M262.225,147.792V145.33h-2.051v.41c-.227,0-.41.276-.41.615s.184.615.41.615v.821h-1.641V156h5.333v-8.205Z" transform="translate(-117.095 -29.305)" fill="#3f3d56"/>
  </g>
</svg>
