<svg id="undraw_on_the_office_re_cxds" xmlns="http://www.w3.org/2000/svg" width="590.636" height="437.149" viewBox="0 0 590.636 437.149">
  <path id="Tracé_5" data-name="Tracé 5" d="M431.331,200.955l6.243,9.757,22.271-11.041,11.451-3.5a8.889,8.889,0,0,0,3.5-14.964h0a8.889,8.889,0,0,0-12.355.146l-9.609,9.511Z" transform="translate(-258.984 -157.941)" fill="#ecc9ce"/>
  <path id="Tracé_6" data-name="Tracé 6" d="M427.769,217.12l-8.324-13.009L387.885,218a14.37,14.37,0,0,0-8.465,11.316h0a14.37,14.37,0,0,0,8.2,14.869l50.31,22.624a14.668,14.668,0,0,0,19.329-6.8h0a14.668,14.668,0,0,0-8.1-20.271l-37.74-13.064Z" transform="translate(-244.887 -164.804)" fill="#1d286c"/>
  <path id="Tracé_7" data-name="Tracé 7" d="M734.262,514.4c0-3.908-1.312-7.079-2.924-7.086H292.088c-1.618.007-2.924,3.179-2.931,7.086V675.264a1.46,1.46,0,0,1-1.319,1.454q-1.768.17-3.536.316c-.029,0-.058.007-.088.007-.642.058-1.283.1-1.925.153h-.007q-.5-.915-.979-1.846a1.466,1.466,0,0,1-.166-.677V505.209c0-1.079.044-2.165.117-3.237a41.474,41.474,0,0,1,.547-4.389c1.232-6.773,4.017-11.359,7.181-11.373H734.437a3.415,3.415,0,0,1,1.341.284,5.23,5.23,0,0,1,1.655,1.159,10.256,10.256,0,0,1,1.626,2.224,29.267,29.267,0,0,1,3.069,11.614c0,.044.007.087.007.131.1,1.181.153,2.384.146,3.587l.1,15.624.066,9.317.2,29.235.073,10.382.321,106.588h0a1.458,1.458,0,0,1-1.458,1.458H735.72a1.458,1.458,0,0,1-1.458-1.458Z" transform="translate(-218.291 -241.236)" fill="#e6e6e6"/>
  <path id="Tracé_8" data-name="Tracé 8" d="M97.967,469.482l-9.451-1.7,2.049-37.262,13.949,2.505Z" transform="translate(-23.983 -116.647)" fill="#ecc9ce"/>
  <path id="Tracé_9" data-name="Tracé 9" d="M283.641,641.094l-29.063-5.219.066-.368a11.494,11.494,0,0,1,13.343-9.281h0l6.032-3.074,9.182,5.806,2.537.456Z" transform="translate(-211.094 -278.34)" fill="#2f2e41"/>
  <path id="Tracé_10" data-name="Tracé 10" d="M587.093,556.151H529.141a5.865,5.865,0,0,1-5.858-5.858V497.269a5.865,5.865,0,0,1,5.858-5.858h57.952a5.865,5.865,0,0,1,5.858,5.858v53.024A5.865,5.865,0,0,1,587.093,556.151Z" transform="translate(-283.898 -242.645)" fill="#3f3d56"/>
  <path id="Tracé_11" data-name="Tracé 11" d="M584.778,553.083H534.972a5.207,5.207,0,0,1-5.2-5.2V503.309a5.207,5.207,0,0,1,5.2-5.2h49.805a5.207,5.207,0,0,1,5.2,5.2v44.572a5.207,5.207,0,0,1-5.2,5.2Z" transform="translate(-285.656 -244.46)" fill="#fff"/>
  <path id="Tracé_12" data-name="Tracé 12" d="M583.105,514.941H543.237a1.3,1.3,0,0,1,0-2.6h39.869a1.3,1.3,0,0,1,0,2.6Z" transform="translate(-288.952 -248.316)" fill="#1d286c"/>
  <path id="Tracé_13" data-name="Tracé 13" d="M583.105,521.989H543.237a1.3,1.3,0,0,1,0-2.6h39.869a1.3,1.3,0,1,1,0,2.6Z" transform="translate(-288.952 -250.225)" fill="#1d286c"/>
  <path id="Tracé_14" data-name="Tracé 14" d="M560.519,529.036H543.237a1.3,1.3,0,0,1,0-2.6h17.282a1.3,1.3,0,1,1,0,2.6Z" transform="translate(-288.952 -252.135)" fill="#1d286c"/>
  <path id="Tracé_15" data-name="Tracé 15" d="M583.105,543.795H543.237a1.3,1.3,0,0,1,0-2.6h39.869a1.3,1.3,0,0,1,0,2.6Z" transform="translate(-288.952 -256.134)" fill="#e4e4e4"/>
  <path id="Tracé_16" data-name="Tracé 16" d="M583.105,550.843H543.237a1.3,1.3,0,0,1,0-2.6h39.869a1.3,1.3,0,0,1,0,2.6Z" transform="translate(-288.952 -258.043)" fill="#e4e4e4"/>
  <path id="Tracé_17" data-name="Tracé 17" d="M560.519,557.89H543.237a1.3,1.3,0,0,1,0-2.6h17.282a1.3,1.3,0,1,1,0,2.6Z" transform="translate(-288.952 -259.953)" fill="#e4e4e4"/>
  <path id="Tracé_18" data-name="Tracé 18" d="M720.416,385.934h-47.33a2.525,2.525,0,0,0-2.521,2.528v74.767h52.379V388.462a2.527,2.527,0,0,0-2.528-2.528ZM696.91,428.416a5.615,5.615,0,0,1-5.589-5.589V414.2a5.589,5.589,0,1,1,11.178,0v8.624a5.615,5.615,0,0,1-5.589,5.589Z" transform="translate(-323.802 -214.067)" fill="#2f2e41"/>
  <path id="Tracé_19" data-name="Tracé 19" d="M670.341,488.675v7.214a1.413,1.413,0,0,0,1.41,1.41h49.884a1.417,1.417,0,0,0,1.41-1.41v-7.214Z" transform="translate(-323.742 -241.904)" fill="#3f3d56"/>
  <path id="Tracé_20" data-name="Tracé 20" d="M768.818,225.888H566.5a6.568,6.568,0,0,0-6.557,6.557V368.97a6.563,6.563,0,0,0,6.557,6.557H768.818a6.563,6.563,0,0,0,6.557-6.557V232.445A6.568,6.568,0,0,0,768.818,225.888Z" transform="translate(-293.831 -170.704)" fill="#3f3d56"/>
  <path id="Tracé_21" data-name="Tracé 21" d="M768.891,232.384H569.953a3.514,3.514,0,0,0-3.507,3.514V369.039a3.513,3.513,0,0,0,3.507,3.507H768.891a3.513,3.513,0,0,0,3.507-3.507V235.9a3.514,3.514,0,0,0-3.506-3.514Z" transform="translate(-295.592 -172.464)" fill="#fff"/>
  <path id="Tracé_22" data-name="Tracé 22" d="M746.181,499.087H627.824a2.177,2.177,0,0,1-2.131-2.626l1.836-8.722a2.187,2.187,0,0,1,2.13-1.729H744.345a2.187,2.187,0,0,1,2.13,1.729l1.836,8.722a2.177,2.177,0,0,1-2.131,2.626Z" transform="translate(-311.632 -241.182)" fill="#2f2e41"/>
  <rect id="Rectangle_69" data-name="Rectangle 69" width="3.645" height="2.187" rx="0.488" transform="translate(318.868 246.399)" fill="#3f3d56"/>
  <rect id="Rectangle_70" data-name="Rectangle 70" width="3.645" height="2.187" rx="0.488" transform="translate(326.159 246.399)" fill="#3f3d56"/>
  <rect id="Rectangle_71" data-name="Rectangle 71" width="3.645" height="2.187" rx="0.488" transform="translate(333.449 246.399)" fill="#3f3d56"/>
  <rect id="Rectangle_72" data-name="Rectangle 72" width="3.645" height="2.187" rx="0.488" transform="translate(340.74 246.399)" fill="#3f3d56"/>
  <rect id="Rectangle_73" data-name="Rectangle 73" width="3.645" height="2.187" rx="0.488" transform="translate(348.03 246.399)" fill="#3f3d56"/>
  <rect id="Rectangle_74" data-name="Rectangle 74" width="3.645" height="2.187" rx="0.488" transform="translate(355.321 246.399)" fill="#3f3d56"/>
  <rect id="Rectangle_75" data-name="Rectangle 75" width="3.645" height="2.187" rx="0.488" transform="translate(362.612 246.399)" fill="#3f3d56"/>
  <rect id="Rectangle_76" data-name="Rectangle 76" width="3.645" height="2.187" rx="0.488" transform="translate(369.902 246.399)" fill="#3f3d56"/>
  <rect id="Rectangle_77" data-name="Rectangle 77" width="3.645" height="2.187" rx="0.488" transform="translate(377.193 246.399)" fill="#3f3d56"/>
  <rect id="Rectangle_78" data-name="Rectangle 78" width="3.645" height="2.187" rx="0.488" transform="translate(384.483 246.399)" fill="#3f3d56"/>
  <rect id="Rectangle_79" data-name="Rectangle 79" width="3.645" height="2.187" rx="0.488" transform="translate(391.774 246.399)" fill="#3f3d56"/>
  <rect id="Rectangle_80" data-name="Rectangle 80" width="3.645" height="2.187" rx="0.488" transform="translate(399.064 246.399)" fill="#3f3d56"/>
  <rect id="Rectangle_81" data-name="Rectangle 81" width="3.645" height="2.187" rx="0.488" transform="translate(406.355 246.399)" fill="#3f3d56"/>
  <rect id="Rectangle_82" data-name="Rectangle 82" width="3.645" height="2.187" rx="0.488" transform="translate(413.646 246.399)" fill="#3f3d56"/>
  <rect id="Rectangle_83" data-name="Rectangle 83" width="3.645" height="2.187" rx="0.488" transform="translate(420.936 246.399)" fill="#3f3d56"/>
  <rect id="Rectangle_84" data-name="Rectangle 84" width="3.645" height="2.187" rx="0.488" transform="translate(428.227 246.399)" fill="#3f3d56"/>
  <rect id="Rectangle_85" data-name="Rectangle 85" width="3.645" height="2.187" rx="0.488" transform="translate(318.782 250.044)" fill="#3f3d56"/>
  <rect id="Rectangle_86" data-name="Rectangle 86" width="3.645" height="2.187" rx="0.488" transform="translate(326.073 250.044)" fill="#3f3d56"/>
  <rect id="Rectangle_87" data-name="Rectangle 87" width="3.645" height="2.187" rx="0.488" transform="translate(333.363 250.044)" fill="#3f3d56"/>
  <rect id="Rectangle_88" data-name="Rectangle 88" width="3.645" height="2.187" rx="0.488" transform="translate(340.654 250.044)" fill="#3f3d56"/>
  <rect id="Rectangle_89" data-name="Rectangle 89" width="3.645" height="2.187" rx="0.488" transform="translate(347.944 250.044)" fill="#3f3d56"/>
  <rect id="Rectangle_90" data-name="Rectangle 90" width="3.645" height="2.187" rx="0.488" transform="translate(355.235 250.044)" fill="#3f3d56"/>
  <rect id="Rectangle_91" data-name="Rectangle 91" width="3.645" height="2.187" rx="0.488" transform="translate(362.526 250.044)" fill="#3f3d56"/>
  <rect id="Rectangle_92" data-name="Rectangle 92" width="3.645" height="2.187" rx="0.488" transform="translate(369.816 250.044)" fill="#3f3d56"/>
  <rect id="Rectangle_93" data-name="Rectangle 93" width="3.645" height="2.187" rx="0.488" transform="translate(377.107 250.044)" fill="#3f3d56"/>
  <rect id="Rectangle_94" data-name="Rectangle 94" width="3.645" height="2.187" rx="0.488" transform="translate(384.397 250.044)" fill="#3f3d56"/>
  <rect id="Rectangle_95" data-name="Rectangle 95" width="3.645" height="2.187" rx="0.488" transform="translate(391.688 250.044)" fill="#3f3d56"/>
  <rect id="Rectangle_96" data-name="Rectangle 96" width="3.645" height="2.187" rx="0.488" transform="translate(398.978 250.044)" fill="#3f3d56"/>
  <rect id="Rectangle_97" data-name="Rectangle 97" width="3.645" height="2.187" rx="0.488" transform="translate(406.269 250.044)" fill="#3f3d56"/>
  <rect id="Rectangle_98" data-name="Rectangle 98" width="3.645" height="2.187" rx="0.488" transform="translate(413.56 250.044)" fill="#3f3d56"/>
  <rect id="Rectangle_99" data-name="Rectangle 99" width="3.645" height="2.187" rx="0.488" transform="translate(420.85 250.044)" fill="#3f3d56"/>
  <rect id="Rectangle_100" data-name="Rectangle 100" width="3.645" height="2.187" rx="0.488" transform="translate(428.141 250.044)" fill="#3f3d56"/>
  <rect id="Rectangle_101" data-name="Rectangle 101" width="29.162" height="2.187" rx="0.488" transform="translate(353.777 254.418)" fill="#3f3d56"/>
  <path id="Tracé_23" data-name="Tracé 23" d="M815.084,726.2l-5.621-9.033-1.123,5.162c-.2.9-.394,1.823-.576,2.734-1.6-1.363-3.3-2.625-4.957-3.835q-7.655-5.556-15.3-11.125l1.6,9.259c.984,5.7,2.012,11.519,4.447,16.732.27.591.561,1.174.875,1.743h23.724a7.653,7.653,0,0,0,.394-1.633.566.566,0,0,0,.007-.109C818.919,732.557,816.965,729.225,815.084,726.2Z" transform="translate(-355.486 -301.898)" fill="#f0f0f0"/>
  <path id="Tracé_24" data-name="Tracé 24" d="M375.084,726.2l-5.621-9.033-1.123,5.162c-.2.9-.394,1.823-.576,2.734-1.6-1.363-3.3-2.625-4.957-3.835q-7.655-5.556-15.3-11.125l1.6,9.259c.984,5.7,2.012,11.519,4.447,16.732.27.591.561,1.174.875,1.743h23.724a7.647,7.647,0,0,0,.394-1.633.563.563,0,0,0,.007-.109C378.919,732.557,376.965,729.225,375.084,726.2Z" transform="translate(-236.272 -301.898)" fill="#f0f0f0"/>
  <path id="Tracé_25" data-name="Tracé 25" d="M928.845,748.852l-201.038.224a.868.868,0,0,1,0-1.736l201.038-.224a.868.868,0,0,1,0,1.736Z" transform="translate(-339.077 -311.926)" fill="#cacaca"/>
  <path id="Tracé_26" data-name="Tracé 26" d="M760.957,256.995H574.811a.74.74,0,1,1,0-1.481H760.957a.74.74,0,1,1,0,1.481Z" transform="translate(-297.658 -178.731)" fill="#cacaca"/>
  <ellipse id="Ellipse_1" data-name="Ellipse 1" cx="4.338" cy="4.435" rx="4.338" ry="4.435" transform="translate(285.486 64.134)" fill="#3f3d56"/>
  <ellipse id="Ellipse_2" data-name="Ellipse 2" cx="4.338" cy="4.435" rx="4.338" ry="4.435" transform="translate(300.472 64.134)" fill="#3f3d56"/>
  <ellipse id="Ellipse_3" data-name="Ellipse 3" cx="4.338" cy="4.435" rx="4.338" ry="4.435" transform="translate(315.459 64.134)" fill="#3f3d56"/>
  <path id="Tracé_27" data-name="Tracé 27" d="M813.777,239.672H803.131a.806.806,0,1,0,0,1.612h10.646a.806.806,0,1,0,0-1.612Z" transform="translate(-359.502 -174.439)" fill="#3f3d56"/>
  <path id="Tracé_28" data-name="Tracé 28" d="M813.777,243.822H803.131a.806.806,0,1,0,0,1.612h10.646a.806.806,0,1,0,0-1.612Z" transform="translate(-359.502 -175.563)" fill="#3f3d56"/>
  <path id="Tracé_29" data-name="Tracé 29" d="M813.777,247.967H803.131a.806.806,0,1,0,0,1.612h10.646a.806.806,0,1,0,0-1.612Z" transform="translate(-359.502 -176.686)" fill="#3f3d56"/>
  <rect id="Rectangle_102" data-name="Rectangle 102" width="29.587" height="6.327" rx="3.163" transform="translate(358.831 118.594)" fill="#1d286c"/>
  <rect id="Rectangle_103" data-name="Rectangle 103" width="59.639" height="6.327" rx="3.163" transform="translate(343.806 131.248)" fill="#e6e6e6"/>
  <rect id="Rectangle_104" data-name="Rectangle 104" width="59.639" height="6.327" rx="3.163" transform="translate(343.806 143.901)" fill="#e6e6e6"/>
  <path id="Tracé_30" data-name="Tracé 30" d="M591.773,406.036a21.736,21.736,0,0,1-1.371,7.633h-20.45a3.513,3.513,0,0,1-3.507-3.507V384.441a21.607,21.607,0,0,1,3.456-.277,21.871,21.871,0,0,1,21.872,21.873Z" transform="translate(-295.592 -213.588)" fill="#e6e6e6"/>
  <path id="Tracé_31" data-name="Tracé 31" d="M474.043,432.389c-.306,8.858-19.145,32.757-29.053,36.183-1.684.583-2.668.9-2.668.9l-3.448-1.043L397.113,455.8c-7.312,4.3-29.126,6.489-47.024,7.582-14.246.868-26.02,1.043-26.02,1.043-4.2,31.963-12.485,62.537-26.458,91.176l-16.768-2.916,15.841-106.676a11.883,11.883,0,0,1,8.747-9.751l113.955-29.808s6.284-1.137,19.539,5.257C460.745,422.233,474.262,425.944,474.043,432.389Z" transform="translate(-218.211 -219.604)" fill="#2f2e41"/>
  <path id="Tracé_32" data-name="Tracé 32" d="M286.13,555.744l-8.515,4.436-21.166-30.735,12.569-6.548Z" transform="translate(-69.483 -141.675)" fill="#ecc9ce"/>
  <path id="Tracé_33" data-name="Tracé 33" d="M488.576,726.206,462.389,739.85l-.173-.331a11.494,11.494,0,0,1,4.882-15.5h0l2.892-6.121,10.816-1.021,2.286-1.191Z" transform="translate(-266.999 -303.41)" fill="#2f2e41"/>
  <path id="Tracé_34" data-name="Tracé 34" d="M479.724,438.4c3.822,8-1.842,37.9-9.045,45.514l-1.912,1.3-.647.337c-4.321,14.616-50.691,57.365-50.691,57.365,15.663,19.953,25.425,44.485,31.653,71.759L435.169,621.1l-50.98-76.106a11.883,11.883,0,0,1,.147-13.441l20.8-29.626,33.889-65.644C463.238,435.534,476.94,432.579,479.724,438.4Z" transform="translate(-245.667 -227.325)" fill="#2f2e41"/>
  <path id="Tracé_35" data-name="Tracé 35" d="M514.055,389.084c-73.192-11.131-79.861-21.141-80.577-20.962l-.635.158,10.6-17.924,3.89-4.595-2.992-2.138,1.187-8.882c.926-3.6,1.675-7.836,1.276-8.4-.825-.913-2.661-2.574-2.68-2.59l-.236-.214,2.756-6.432,3.692-51.423,9.518-18.974L479.5,235.058l17.315.21,15.217,14.114a32.57,32.57,0,0,1,17.886,35.387l-7.729,40.826-2.843,21.043,4.64,4.639-2.887,2.887-1.716,9.83,1.758,11.133c1.374,10.116-4.736,10.719-5.187,10.845-.027.008-1.354,3.483-1.41,3.483C514.4,389.455,514.392,389.136,514.055,389.084Z" transform="translate(-259.394 -173.188)" fill="#1d286c"/>
  <path id="Tracé_36" data-name="Tracé 36" d="M533.878,487.335a7.992,7.992,0,0,0-.937-12.219l8.029-27.242-14.115,4.31-5.46,25.209a8.035,8.035,0,0,0,12.484,9.942Z" transform="translate(-283.06 -230.849)" fill="#ecc9ce"/>
  <path id="Tracé_37" data-name="Tracé 37" d="M530.6,423.74,515.34,416.9l12.238-50.822-22.791-55.326a20.15,20.15,0,0,1,14.486-27.393h0a20.171,20.171,0,0,1,23.862,15.575L557,364.886Z" transform="translate(-278.475 -186.158)" fill="#1d286c"/>
  <path id="Tracé_38" data-name="Tracé 38" d="M458.091,200.293l5.577-23.194a3.082,3.082,0,0,1,3.713-2.273l5.055,1.215a3.082,3.082,0,0,1,2.273,3.713l-5.577,23.194a3.082,3.082,0,0,1-3.713,2.273l-5.055-1.215A3.082,3.082,0,0,1,458.091,200.293Z" transform="translate(-266.211 -156.846)" fill="#3f3d56"/>
  <path id="Tracé_39" data-name="Tracé 39" d="M468.453,176.658a1.661,1.661,0,0,0-2,1.225l-5.577,23.194a1.661,1.661,0,0,0,1.225,2l5.055,1.215a1.661,1.661,0,0,0,2-1.225l5.577-23.194a1.661,1.661,0,0,0-1.225-2Z" transform="translate(-266.976 -157.353)" fill="#1d286c"/>
  <circle id="Ellipse_4" data-name="Ellipse 4" cx="24.757" cy="24.757" r="24.757" transform="translate(200.108 8.56)" fill="#ecc9ce"/>
  <path id="Tracé_40" data-name="Tracé 40" d="M505.563,200.066l.891-5.014a15.244,15.244,0,0,0-8.831-16.4l-.765-.37.63-.337a.973.973,0,0,0-.579-1.823l-.716.089a2.547,2.547,0,0,1-2.4-3.98,22.111,22.111,0,0,1-7.783,1.673c-3.87-.029-7.232-1.916-8.566-4.806a6.935,6.935,0,0,1-.591-2.273c-4.088,1.611-6.292,6.439-6.315,6.49l-1.209,2.7.517-2.91c.016-.089,1.6-8.9,3.892-14.369h0c2.467-5.879,12.735-8.977,28.16-8.487,15.066.473,18.409,17.652,18.7,19.314,4.28,4.118,2.725,11.916,1.409,16.217-2.132,6.965-6.339,13.9-8.657,14.26a1.07,1.07,0,0,1-1.092-.465,3.078,3.078,0,0,0-2.106-1.4,5.919,5.919,0,0,0-3.826,1.285Z" transform="translate(-269.279 -150.196)" fill="#2f2e41"/>
  <path id="Tracé_41" data-name="Tracé 41" d="M396.84,748.852l-201.038.224a.868.868,0,1,1,0-1.736l201.038-.224a.868.868,0,1,1,0,1.736Z" transform="translate(-194.934 -311.926)" fill="#cacaca"/>
</svg>
